<svg id="Layer_1" data-name="Layer 1" xmlns="http://www.w3.org/2000/svg" xmlns:xlink="http://www.w3.org/1999/xlink" viewBox="0 0 654.97 180.46"><defs><style>.cls-1{fill:url(#linear-gradient);}.cls-2{fill:#0d0c42;}.cls-3{fill:url(#linear-gradient-2);}</style><linearGradient id="linear-gradient" x1="381.35" y1="-128.41" x2="567.59" y2="-128.41" gradientTransform="translate(-109.53 167.73) rotate(-3.75)" gradientUnits="userSpaceOnUse"><stop offset="0" stop-color="#ff293b"/><stop offset="1" stop-color="#ff6d74"/></linearGradient><linearGradient id="linear-gradient-2" x1="280.26" y1="-120.15" x2="466.49" y2="-120.15" gradientTransform="translate(-109.53 167.73) rotate(-3.75)" gradientUnits="userSpaceOnUse"><stop offset="0" stop-color="#ff293b"/><stop offset="1" stop-color="#d72c43"/></linearGradient></defs><title>ThorPay_logo</title><polygon class="cls-1" points="317.9 25.7 448.28 0.11 261.64 0 317.9 25.7"/><path class="cls-2" d="M62.09,48.41v98.87H38.32V48.41H0V26H100.41V48.41Z"/><path class="cls-2" d="M138.55,147.28H115.8V23.44h22.75v46.7c5.47-6.5,14.71-9.24,22.75-9.24,21.38,0,31.3,14.88,31.3,33.36v53H169.86V98.19c0-9.41-4.62-16.76-15.57-16.76-9.58,0-15.22,7.18-15.74,16.42Z"/><path class="cls-2" d="M297.63,105.2c0,25.83-19,44.65-44.13,44.65S209.37,131,209.37,105.2c0-26,19-44.65,44.13-44.65S297.63,79.2,297.63,105.2Zm-22.75,0c0-15.91-10.26-23.95-21.38-23.95s-21.38,8-21.38,23.95c0,15.74,10.26,23.95,21.38,23.95S274.88,121.11,274.88,105.2Z"/><path class="cls-2" d="M366.91,85.7a34.26,34.26,0,0,0-6.84-.68c-11.63,0-21.72,5.64-21.72,23.78v38.49H315.6V63.12h22.07V75.61c5.13-11.12,16.76-13.17,23.95-13.17a51.8,51.8,0,0,1,5.3.34Z"/><path class="cls-2" d="M407.8,101.61v45.67H384.19V26h45.33c23.95,0,39.86,15.91,39.86,37.8,0,22.07-15.91,37.8-39.86,37.8Zm18.82-20.36c11.8,0,19-6.84,19-17.28,0-10.78-7.18-17.45-19-17.45H408V81.25Z"/><path class="cls-2" d="M503.07,98.87l20.7-3.08c4.79-.68,6.33-3.08,6.33-6,0-6-4.62-10.95-14.2-10.95-9.92,0-15.39,6.33-16.08,13.68l-20.18-4.28c1.37-13.17,13.51-27.71,36.09-27.71,26.68,0,36.61,15.05,36.61,32v41.4a94.26,94.26,0,0,0,1,13.34H532.49a57,57,0,0,1-.86-10.09c-4.28,6.67-12.32,12.49-24.8,12.49-18,0-28.91-12.14-28.91-25.32C477.93,109.3,489,100.92,503.07,98.87Zm27,14.37v-3.76l-19,2.91c-5.82.86-10.43,4.11-10.43,10.61,0,5,3.59,9.75,10.95,9.75C521.21,132.74,530.1,128.12,530.1,113.24Z"/><path class="cls-2" d="M578,180.46l19.84-43.79L562.09,63.12h25.49L610,112.38l20.7-49.26H655L602.12,180.46Z"/><polygon class="cls-3" points="349.6 40.18 293.33 14.48 293.33 14.48 261.64 0 277.6 17.57 162.96 40.07 349.6 40.18"/></svg>