<svg id="Layer_1" data-name="Layer 1" xmlns="http://www.w3.org/2000/svg" xmlns:xlink="http://www.w3.org/1999/xlink" viewBox="0 0 1920 1080"><defs><style>.cls-1{fill:none;}.cls-2{clip-path:url(#clip-path);}.cls-3{fill:url(#linear-gradient);}.cls-4{fill:url(#linear-gradient-2);}.cls-5{fill:url(#linear-gradient-3);}.cls-6{fill:#fff;}</style><clipPath id="clip-path"><rect class="cls-1" width="1920" height="1080"/></clipPath><linearGradient id="linear-gradient" x1="-740.98" y1="125.36" x2="8416.76" y2="125.36" gradientTransform="translate(-17.52 206.17) rotate(-3.75)" gradientUnits="userSpaceOnUse"><stop offset="0" stop-color="#ff293b"/><stop offset="1" stop-color="#ff6d74"/></linearGradient><linearGradient id="linear-gradient-2" x1="-5712.37" y1="531.51" x2="3445.38" y2="531.51" gradientTransform="translate(-17.52 206.17) rotate(-3.75)" gradientUnits="userSpaceOnUse"><stop offset="0" stop-color="#ff293b"/><stop offset="1" stop-color="#d72c43"/></linearGradient><linearGradient id="linear-gradient-3" x1="976.72" y1="468.89" x2="997.92" y2="417.64" gradientUnits="userSpaceOnUse"><stop offset="0" stop-color="#dadada"/><stop offset="0.11" stop-color="#eaeaea"/><stop offset="0.26" stop-color="#f6f6f6"/><stop offset="0.46" stop-color="#fdfdfd"/><stop offset="1" stop-color="#fff"/></linearGradient></defs><title>ThorPay_logo+bg</title><g class="cls-2"><polygon class="cls-3" points="1970.68 924 8381.87 -334.44 -795.9 -339.75 1970.68 924"/><polygon class="cls-4" points="3529.02 1635.84 762.44 372.08 762.43 372.08 -795.9 -339.75 -11.45 523.99 -5648.75 1630.53 3529.02 1635.84"/></g><polygon class="cls-5" points="947.62 456.65 1116.03 423.59 874.95 423.45 947.62 456.65"/><path class="cls-6" d="M617.2,486V613.69H586.49V486H537V457H666.69V486Z"/><path class="cls-6" d="M716,613.69H686.58v-160H716V514c7.07-8.4,19-11.93,29.39-11.93,27.62,0,40.43,19.22,40.43,43.08v68.49H756.39V550.27c0-12.15-6-21.65-20.11-21.65-12.37,0-19.66,9.28-20.33,21.21Z"/><path class="cls-6" d="M921.44,559.33c0,33.36-24.52,57.67-57,57.67s-57-24.3-57-57.67c0-33.58,24.52-57.67,57-57.67S921.44,525.75,921.44,559.33Zm-29.39,0c0-20.55-13.26-30.93-27.62-30.93s-27.62,10.38-27.62,30.93c0,20.33,13.26,30.93,27.62,30.93S892.06,579.88,892.06,559.33Z"/><path class="cls-6" d="M1010.93,534.15a44.26,44.26,0,0,0-8.84-.88c-15,0-28.06,7.29-28.06,30.71v49.71H944.64V505h28.5v16.13c6.63-14.36,21.65-17,30.93-17a66.91,66.91,0,0,1,6.85.44Z"/><path class="cls-6" d="M1063.73,554.69v59h-30.49V457h58.55c30.93,0,51.48,20.55,51.48,48.83,0,28.5-20.55,48.83-51.48,48.83ZM1088,528.4c15.24,0,24.52-8.84,24.52-22.32,0-13.92-9.28-22.54-24.52-22.54H1064V528.4Z"/><path class="cls-6" d="M1186.8,551.16l26.73-4c6.19-.88,8.18-4,8.18-7.73,0-7.73-6-14.14-18.34-14.14-12.81,0-19.88,8.18-20.77,17.68l-26.07-5.52c1.77-17,17.45-35.79,46.62-35.79,34.47,0,47.28,19.44,47.28,41.32v53.47a121.76,121.76,0,0,0,1.33,17.23h-27a73.64,73.64,0,0,1-1.1-13c-5.52,8.62-15.91,16.13-32,16.13-23.2,0-37.34-15.69-37.34-32.7C1154.32,564.64,1168.68,553.81,1186.8,551.16Zm34.91,18.56v-4.86l-24.52,3.76c-7.51,1.1-13.48,5.3-13.48,13.7,0,6.41,4.64,12.59,14.14,12.59C1210.22,594.91,1221.71,588.94,1221.71,569.72Z"/><path class="cls-6" d="M1283.57,656.55,1309.2,600,1263,505h32.92l28.94,63.63L1351.63,505H1383l-68.27,151.57Z"/><polygon class="cls-6" points="988.56 475.35 915.89 442.15 915.89 442.15 874.95 423.45 895.56 446.14 747.48 475.2 988.56 475.35"/></svg>