<svg id="Layer_1" data-name="Layer 1" xmlns="http://www.w3.org/2000/svg" xmlns:xlink="http://www.w3.org/1999/xlink" viewBox="0 0 4860.39 683.89"><defs><style>.cls-1{fill:url(#linear-gradient);}.cls-2{fill:url(#linear-gradient-2);}.cls-3{fill:url(#linear-gradient-3);}.cls-4{fill:#fff;}</style><linearGradient id="linear-gradient" x1="1787.32" y1="313.6" x2="4959.68" y2="313.6" gradientTransform="translate(-106.58 53.28) rotate(-3.75)" gradientUnits="userSpaceOnUse"><stop offset="0" stop-color="#ff293b"/><stop offset="1" stop-color="#ff6d74"/></linearGradient><linearGradient id="linear-gradient-2" x1="65.17" y1="454.3" x2="3237.53" y2="454.3" gradientTransform="translate(-106.58 53.28) rotate(-3.75)" gradientUnits="userSpaceOnUse"><stop offset="0" stop-color="#ff293b"/><stop offset="1" stop-color="#d72c43"/></linearGradient><linearGradient id="linear-gradient-3" x1="2182.26" y1="455.13" x2="2194.26" y2="426.13" gradientUnits="userSpaceOnUse"><stop offset="0" stop-color="#dadada"/><stop offset="0.11" stop-color="#eaeaea"/><stop offset="0.26" stop-color="#f6f6f6"/><stop offset="0.46" stop-color="#fdfdfd"/><stop offset="1" stop-color="#fff"/></linearGradient></defs><title>ThorPay_footer</title><polygon class="cls-1" points="2639.47 437.78 4860.39 1.84 1681.09 0 2639.47 437.78"/><polygon class="cls-2" points="3179.3 684.37 2220.92 246.59 2220.92 246.59 1681.09 0 1952.83 299.21 0 682.53 3179.3 684.37"/><polygon class="cls-3" points="2165.8 448.2 2261.1 429.49 2124.67 429.41 2165.8 448.2"/><path class="cls-4" d="M1978.8,464.8v72.27h-17.38V464.8h-28V448.42h73.4V464.8Z"/><path class="cls-4" d="M2034.69,537.07h-16.63V446.54h16.63v34.14c4-4.75,10.75-6.75,16.63-6.75,15.63,0,22.88,10.88,22.88,24.38v38.76h-16.63V501.19c0-6.88-3.38-12.25-11.38-12.25-7,0-11.13,5.25-11.5,12Z"/><path class="cls-4" d="M2151,506.31c0,18.88-13.88,32.64-32.26,32.64s-32.26-13.75-32.26-32.64,13.88-32.64,32.26-32.64S2151,487.31,2151,506.31Zm-16.63,0c0-11.63-7.5-17.51-15.63-17.51s-15.63,5.88-15.63,17.51,7.5,17.51,15.63,17.51S2134.35,517.94,2134.35,506.31Z"/><path class="cls-4" d="M2201.62,492.06a25,25,0,0,0-5-.5c-8.5,0-15.88,4.13-15.88,17.38v28.13h-16.63V475.55h16.13v9.13c3.75-8.13,12.25-9.63,17.51-9.63a37.87,37.87,0,0,1,3.88.25Z"/><path class="cls-4" d="M2231.51,503.69v33.39h-17.26V448.42h33.14c17.51,0,29.13,11.63,29.13,27.63s-11.63,27.63-29.13,27.63Zm13.75-14.88c8.63,0,13.88-5,13.88-12.63,0-7.88-5.25-12.75-13.88-12.75h-13.63v25.38Z"/><path class="cls-4" d="M2301.16,501.69l15.13-2.25c3.5-.5,4.63-2.25,4.63-4.38,0-4.38-3.38-8-10.38-8-7.25,0-11.25,4.63-11.75,10L2284,493.93c1-9.63,9.88-20.26,26.38-20.26,19.51,0,26.76,11,26.76,23.38v30.26a68.91,68.91,0,0,0,.75,9.75h-15.26a41.67,41.67,0,0,1-.63-7.38c-3.13,4.88-9,9.13-18.13,9.13-13.13,0-21.13-8.88-21.13-18.51C2282.77,509.31,2290.9,503.19,2301.16,501.69Zm19.76,10.5v-2.75L2307,511.57c-4.25.63-7.63,3-7.63,7.75,0,3.63,2.63,7.13,8,7.13C2314.41,526.44,2320.91,523.07,2320.91,512.19Z"/><path class="cls-4" d="M2355.92,561.33l14.5-32-26.13-53.77h18.63l16.38,36,15.13-36h17.76l-38.64,85.78Z"/><polygon class="cls-4" points="2188.96 458.78 2147.84 439.99 2147.84 439.99 2124.67 429.41 2136.33 442.25 2052.53 458.7 2188.96 458.78"/></svg>