<svg id="Layer_1" data-name="Layer 1" xmlns="http://www.w3.org/2000/svg" xmlns:xlink="http://www.w3.org/1999/xlink" viewBox="0 0 1920 643.89"><defs><style>.cls-1{fill:none;}.cls-2{clip-path:url(#clip-path);}.cls-3{fill:url(#linear-gradient);}.cls-4{fill:url(#linear-gradient-2);}.cls-5{fill:url(#linear-gradient-3);}.cls-6{fill:url(#linear-gradient-4);}.cls-7{fill:#fff;}</style><clipPath id="clip-path"><rect class="cls-1" x="-5746.67" y="-853.28" width="1920" height="1080"/></clipPath><linearGradient id="linear-gradient" x1="-6487.65" y1="-727.92" x2="2670.1" y2="-727.92" gradientTransform="translate(26 -171.74) rotate(-3.75)" gradientUnits="userSpaceOnUse"><stop offset="0" stop-color="#ff293b"/><stop offset="1" stop-color="#ff6d74"/></linearGradient><linearGradient id="linear-gradient-2" x1="1091.34" y1="188.78" x2="1920" y2="188.78" gradientTransform="matrix(1, 0, 0, 1, 0, 0)" xlink:href="#linear-gradient"/><linearGradient id="linear-gradient-3" y1="321.71" x2="1920" y2="321.71" gradientUnits="userSpaceOnUse"><stop offset="0" stop-color="#ff293b"/><stop offset="1" stop-color="#d72c43"/></linearGradient><linearGradient id="linear-gradient-4" x1="1592.52" y1="454.65" x2="1604.52" y2="425.65" gradientUnits="userSpaceOnUse"><stop offset="0" stop-color="#dadada"/><stop offset="0.11" stop-color="#eaeaea"/><stop offset="0.26" stop-color="#f6f6f6"/><stop offset="0.46" stop-color="#fdfdfd"/><stop offset="1" stop-color="#fff"/></linearGradient></defs><title>ThorPay_footer_2</title><g class="cls-2"><polygon class="cls-3" points="-3775.99 70.72 2635.2 -1187.72 -6542.57 -1193.03 -3775.99 70.72"/></g><polygon class="cls-4" points="1920 0 1091.34 -0.48 1920 378.05 1920 0"/><polygon class="cls-5" points="1920 378.05 1631.17 246.11 1631.17 246.11 1091.34 -0.48 1363.09 298.73 0 566.29 0 643.89 1920 643.89 1920 378.05"/><polygon class="cls-6" points="1576.05 447.72 1671.36 429.01 1534.92 428.93 1576.05 447.72"/><path class="cls-7" d="M1389.05,464.32v72.27h-17.38V464.32h-28V447.94h73.4v16.38Z"/><path class="cls-7" d="M1444.94,536.59h-16.63V446.06h16.63V480.2c4-4.75,10.75-6.75,16.63-6.75,15.63,0,22.88,10.88,22.88,24.38v38.76h-16.63V500.71c0-6.88-3.38-12.25-11.38-12.25-7,0-11.13,5.25-11.5,12Z"/><path class="cls-7" d="M1561.23,505.83c0,18.88-13.88,32.64-32.26,32.64s-32.26-13.75-32.26-32.64,13.88-32.64,32.26-32.64S1561.23,486.83,1561.23,505.83Zm-16.63,0c0-11.63-7.5-17.51-15.63-17.51s-15.63,5.88-15.63,17.51,7.5,17.51,15.63,17.51S1544.6,517.46,1544.6,505.83Z"/><path class="cls-7" d="M1611.88,491.58a25,25,0,0,0-5-.5c-8.5,0-15.88,4.13-15.88,17.38v28.13h-16.63V475.07h16.13v9.13c3.75-8.13,12.25-9.63,17.51-9.63a37.87,37.87,0,0,1,3.88.25Z"/><path class="cls-7" d="M1641.76,503.21v33.39H1624.5V447.94h33.14c17.51,0,29.13,11.63,29.13,27.63s-11.63,27.63-29.13,27.63Zm13.75-14.88c8.63,0,13.88-5,13.88-12.63,0-7.88-5.25-12.75-13.88-12.75h-13.63v25.38Z"/><path class="cls-7" d="M1711.41,501.21l15.13-2.25c3.5-.5,4.63-2.25,4.63-4.38,0-4.38-3.38-8-10.38-8-7.25,0-11.25,4.63-11.75,10l-14.76-3.13c1-9.63,9.88-20.26,26.38-20.26,19.51,0,26.76,11,26.76,23.38v30.26a68.91,68.91,0,0,0,.75,9.75h-15.26a41.67,41.67,0,0,1-.63-7.38c-3.13,4.88-9,9.13-18.13,9.13-13.13,0-21.13-8.88-21.13-18.51C1693,508.83,1701.16,502.71,1711.41,501.21Zm19.76,10.5V509l-13.88,2.13c-4.25.63-7.63,3-7.63,7.75,0,3.63,2.63,7.13,8,7.13C1724.66,526,1731.17,522.59,1731.17,511.71Z"/><path class="cls-7" d="M1766.18,560.85l14.5-32-26.13-53.77h18.63l16.38,36,15.13-36h17.76l-38.64,85.78Z"/><polygon class="cls-7" points="1599.21 458.3 1558.09 439.51 1558.09 439.51 1534.92 428.93 1546.58 441.77 1462.78 458.22 1599.21 458.3"/></svg>