<svg id="Layer_1" data-name="Layer 1" xmlns="http://www.w3.org/2000/svg" xmlns:xlink="http://www.w3.org/1999/xlink" viewBox="0 0 846 235.91"><defs><style>.cls-1{fill:none;}.cls-2{clip-path:url(#clip-path);}.cls-3{fill:url(#linear-gradient);}.cls-4{fill:url(#linear-gradient-2);}.cls-5{fill:url(#linear-gradient-3);}.cls-6{fill:#fff;}</style><clipPath id="clip-path"><rect class="cls-1" x="-3082.15" y="-423.55" width="1920" height="1080"/></clipPath><linearGradient id="linear-gradient" x1="-3823.14" y1="-298.19" x2="5334.61" y2="-298.19" gradientTransform="translate(3.59 3.55) rotate(-3.75)" gradientUnits="userSpaceOnUse"><stop offset="0" stop-color="#ff293b"/><stop offset="1" stop-color="#ff6d74"/></linearGradient><linearGradient id="linear-gradient-2" x1="-8794.53" y1="107.96" x2="363.22" y2="107.96" gradientTransform="translate(3.59 3.55) rotate(-3.75)" gradientUnits="userSpaceOnUse"><stop offset="0" stop-color="#ff293b"/><stop offset="1" stop-color="#d72c43"/></linearGradient><linearGradient id="linear-gradient-3" x1="439.72" y1="45.34" x2="460.92" y2="-5.91" gradientUnits="userSpaceOnUse"><stop offset="0" stop-color="#dadada"/><stop offset="0.11" stop-color="#eaeaea"/><stop offset="0.26" stop-color="#f6f6f6"/><stop offset="0.46" stop-color="#fdfdfd"/><stop offset="1" stop-color="#fff"/></linearGradient></defs><title>ThorPay_Logo_white</title><g class="cls-2"><polygon class="cls-3" points="-1111.47 500.45 5299.72 -757.99 -3878.05 -763.3 -1111.47 500.45"/><polygon class="cls-4" points="446.87 1212.29 -2319.71 -51.47 -2319.72 -51.47 -3878.05 -763.3 -3093.6 100.44 -8730.91 1206.98 446.87 1212.29"/></g><polygon class="cls-5" points="410.62 33.1 579.03 0.04 337.95 -0.1 410.62 33.1"/><path class="cls-6" d="M80.2,62.43V190.14H49.49V62.43H0V33.49H129.69V62.43Z"/><path class="cls-6" d="M179,190.14H149.58v-160H179V90.49c7.07-8.4,19-11.93,29.39-11.93,27.62,0,40.43,19.22,40.43,43.08v68.49H219.39V126.73c0-12.15-6-21.65-20.11-21.65-12.37,0-19.66,9.28-20.33,21.21Z"/><path class="cls-6" d="M384.44,135.78c0,33.36-24.52,57.67-57,57.67s-57-24.3-57-57.67c0-33.58,24.52-57.67,57-57.67S384.44,102.2,384.44,135.78Zm-29.39,0c0-20.55-13.26-30.93-27.62-30.93s-27.62,10.38-27.62,30.93c0,20.33,13.26,30.93,27.62,30.93S355.06,156.33,355.06,135.78Z"/><path class="cls-6" d="M473.93,110.6a44.26,44.26,0,0,0-8.84-.88c-15,0-28.06,7.29-28.06,30.71v49.71H407.64V81.43h28.5V97.56c6.63-14.36,21.65-17,30.93-17a66.91,66.91,0,0,1,6.85.44Z"/><path class="cls-6" d="M526.73,131.14v59H496.24V33.49h58.55c30.93,0,51.48,20.55,51.48,48.83,0,28.5-20.55,48.83-51.48,48.83ZM551,104.85c15.24,0,24.52-8.84,24.52-22.32C575.56,68.62,566.28,60,551,60H527v44.85Z"/><path class="cls-6" d="M649.8,127.61l26.73-4c6.19-.88,8.18-4,8.18-7.73,0-7.73-6-14.14-18.34-14.14-12.81,0-19.88,8.18-20.77,17.68l-26.07-5.52c1.77-17,17.45-35.79,46.62-35.79,34.47,0,47.28,19.44,47.28,41.32V172.9a121.76,121.76,0,0,0,1.33,17.23h-27a73.64,73.64,0,0,1-1.1-13c-5.52,8.62-15.91,16.13-32,16.13-23.2,0-37.34-15.69-37.34-32.7C617.32,141.09,631.68,130.26,649.8,127.61Zm34.91,18.56v-4.86l-24.52,3.76c-7.51,1.1-13.48,5.3-13.48,13.7,0,6.41,4.64,12.59,14.14,12.59C673.22,171.36,684.71,165.39,684.71,146.17Z"/><path class="cls-6" d="M746.57,233l25.63-56.56L726,81.43h32.92l28.94,63.63,26.73-63.63H846L777.73,233Z"/><polygon class="cls-6" points="451.56 51.8 378.89 18.6 378.89 18.6 337.95 -0.1 358.56 22.59 210.48 51.66 451.56 51.8"/></svg>