<svg id="Laag_1" data-name="Laag 1" xmlns="http://www.w3.org/2000/svg" xmlns:xlink="http://www.w3.org/1999/xlink" viewBox="0 0 799.64 1080"><defs><style>.cls-1{fill:none;}.cls-2{clip-path:url(#clip-path);}.cls-3{fill:#fff;}</style><clipPath id="clip-path" transform="translate(0 0)"><rect class="cls-1" width="799.64" height="1080"/></clipPath></defs><title>SafeHaven_Brandmark_Negative_White</title><g class="cls-2"><path class="cls-3" d="M399.82,40a7.84,7.84,0,0,1,2.83.53L477.13,67q141.09,49.91,282.32,99.63l-2,347.64c-.89,22.82-1.72,41.92-2.9,60.68-2.58,41-7.73,78.37-15.76,114.25-8.91,39.78-21.24,74.23-37.7,105.32C677.17,839.77,642.79,880.46,595.94,919c-37.08,30.53-78.09,58.17-125.36,84.51-22.76,12.68-45.93,24.64-66.34,35.17a10.46,10.46,0,0,1-4.66,1.32,7.08,7.08,0,0,1-3.19-.8c-22.14-11.44-45-23.27-67.38-35.72-47.1-26.21-88.1-53.85-125.36-84.5-46.83-38.5-81.21-79.2-105.11-124.4C82.1,763.41,69.77,729,60.85,689.19c-8-35.69-13.17-73.06-15.75-114.27-1.23-19.26-2-39-2.91-60.63L40,467.09V166.7Q181.44,117,323.11,66.79l48.2-17.05c8.69-3.09,17.37-6.19,25.91-9.3a7.88,7.88,0,0,1,2.6-.42m0-40a47.9,47.9,0,0,0-16.15,2.78C375.1,5.9,366.49,9,357.9,12l-48.13,17q-148,52.38-296.15,104.51L0,138.34V468l2.21,48.11c.85,21,1.68,41.49,3,61.35,2.7,43.19,8.13,82.61,16.64,120.5C31.51,741.25,45,779,63.15,813.25c26.43,50,64.09,94.7,115.08,136.63,39.09,32.15,82,61.13,131.32,88.55,22.82,12.72,46,24.72,68.47,36.31a47.14,47.14,0,0,0,21.56,5.26,50,50,0,0,0,23-5.76c20.84-10.75,44.43-22.93,67.51-35.79,49.36-27.5,92.31-56.46,131.31-88.57,51-41.93,88.65-86.63,115.08-136.63,18.14-34.26,31.67-72,41.37-115.28,8.52-38.07,13.95-77.49,16.65-120.49,1.22-19.32,2.07-38.88,3-62.29l2.18-376.85L786,133.56Q638.15,81.65,490.48,29.29L416.06,2.84A47.14,47.14,0,0,0,399.82,0" transform="translate(0 0)"/><path class="cls-3" d="M536.73,747.89l-75.68-313h0l-5.9-24.39A92.89,92.89,0,0,1,418,426.92a91.05,91.05,0,0,1-18.14,2,93.3,93.3,0,1,1,86.62-59.44l13.11,54.25a132.93,132.93,0,1,0-165.07,28,133.77,133.77,0,0,0,17.29,8.14c.72.28,1.45.53,2.18.8A129.46,129.46,0,0,0,372.18,466h0A133,133,0,0,0,399.81,469a131.54,131.54,0,0,0,27.54-3.16l65.34,270.26H306.92L362.8,504.89a171.74,171.74,0,0,1-38-13.25L262.88,747.89a22.82,22.82,0,0,0,22.18,28.18H514.55a22.82,22.82,0,0,0,22.18-28.18" transform="translate(0 0)"/><path class="cls-3" d="M342.32,120.53l-1,.36c-80,28.32-162.44,57.47-244.07,86.19V428.92h40V235.41c73.08-25.75,146.33-51.66,217.41-76.81l1-.36,24.15-8.54V107.27Z" transform="translate(0 0)"/><path class="cls-3" d="M265.45,844c-36.7-30.18-63.18-61.19-80.93-94.77-12.38-23.45-21.81-50-28.83-81.35-6.89-30.64-11.33-63-13.58-99.07v-.11c-1.16-18.16-1.95-37.69-2.79-58.39v-.5l-1.88-40.91h-40l2,42.74v.3c.85,20.92,1.65,40.68,2.84,59.31v.07c2.38,38.15,7.12,72.61,14.47,105.33,7.81,34.79,18.43,64.63,32.49,91.26,20.28,38.37,50,73.37,90.9,107,34.59,28.45,72.81,54.2,116.88,78.72,7.54,4.2,15.19,8.35,22.88,12.45V920.6l-3.43-1.9c-41.94-23.34-78.22-47.76-110.93-74.66" transform="translate(0 0)"/><path class="cls-3" d="M445.05,158.49l.11,0c77.27,27.33,147.73,52.25,217.09,76.69l-1.12,193.7h40l1.29-222c-77.38-27.23-154.34-54.44-244.1-86.19h0l0,0-38.41-13.65v42.45l25,8.87Z" transform="translate(0 0)"/><path class="cls-3" d="M660.9,469l-.25,43.17c-.83,21.3-1.62,39.15-2.72,56.77-2.25,35.86-6.7,68.28-13.61,99.13-7,31.25-16.41,57.8-28.79,81.19-17.78,33.63-44.29,64.66-81,94.89-32.52,26.77-68.8,51.19-110.93,74.66l-3.72,2.06v45.5c7.73-4.12,15.51-8.33,23.2-12.62,44.25-24.65,82.48-50.4,116.88-78.72,40.92-33.65,70.67-68.66,91-107.08,14.06-26.57,24.68-56.37,32.47-91.14,7.36-32.92,12.1-67.39,14.49-105.36,1.14-18.09,1.94-36.47,2.8-58.39L700.9,469Z" transform="translate(0 0)"/></g></svg>
