<svg id="Laag_1" data-name="Laag 1" xmlns="http://www.w3.org/2000/svg" xmlns:xlink="http://www.w3.org/1999/xlink" viewBox="0 0 799.64 1080"><defs><style>.cls-1{fill:none;}.cls-2{clip-path:url(#clip-path);}.cls-3{fill:url(#Naamloos_verloop);}.cls-4{clip-path:url(#clip-path-2);}.cls-5{fill:url(#Naamloos_verloop_2);}.cls-6{clip-path:url(#clip-path-3);}.cls-7{fill:url(#Naamloos_verloop_3);}.cls-8{clip-path:url(#clip-path-4);}.cls-9{fill:url(#Naamloos_verloop_4);}.cls-10{clip-path:url(#clip-path-5);}.cls-11{fill:url(#Naamloos_verloop_5);}.cls-12{clip-path:url(#clip-path-6);}.cls-13{fill:url(#Naamloos_verloop_6);}</style><clipPath id="clip-path"><path class="cls-1" d="M396.39,1039.18c-22.14-11.44-45-23.27-67.38-35.72-47.1-26.21-88.1-53.85-125.36-84.5-46.83-38.5-81.21-79.2-105.11-124.4C82.1,763.41,69.77,729,60.85,689.19c-8-35.69-13.17-73.05-15.75-114.27-1.23-19.26-2-39-2.91-60.63L40,467.09V166.7Q181.44,117,323.11,66.79l48.2-17.05c8.69-3.09,17.37-6.19,25.91-9.3a8,8,0,0,1,5.43.11L477.13,67q141.09,49.91,282.32,99.63l-2,347.64c-.89,22.82-1.72,41.92-2.9,60.68-2.58,41-7.73,78.37-15.76,114.26-8.91,39.77-21.24,74.22-37.7,105.31C677.17,839.77,642.79,880.46,595.94,919c-37.08,30.53-78.09,58.17-125.36,84.51-22.76,12.68-45.93,24.64-66.34,35.17a10.44,10.44,0,0,1-4.66,1.31,7,7,0,0,1-3.19-.79M399.82,0a47.9,47.9,0,0,0-16.15,2.78C375.1,5.9,366.49,9,357.9,12l-48.13,17q-148,52.36-296.15,104.49L0,138.34V468l2.21,48.11c.85,21,1.68,41.49,3,61.35,2.7,43.2,8.13,82.61,16.64,120.5C31.51,741.25,45,779,63.15,813.25c26.43,50,64.09,94.7,115.08,136.63,39.09,32.15,82,61.13,131.32,88.55,22.82,12.73,46,24.72,68.47,36.31a47.14,47.14,0,0,0,21.56,5.26,50,50,0,0,0,23-5.76c20.84-10.75,44.43-22.93,67.51-35.79,49.36-27.5,92.31-56.46,131.31-88.57,51-41.93,88.65-86.62,115.09-136.63,18.13-34.26,31.66-72,41.36-115.28,8.52-38.07,13.95-77.49,16.65-120.49,1.22-19.32,2.07-38.88,3-62.3l2.18-376.84L786,133.55Q638.15,81.65,490.48,29.29L416.06,2.84A47.14,47.14,0,0,0,399.82,0Z"/></clipPath><linearGradient id="Naamloos_verloop" y1="1079.94" x2="1" y2="1079.94" gradientTransform="matrix(1015.95, 0, 0, -1015.95, -49.36, 1097704.62)" gradientUnits="userSpaceOnUse"><stop offset="0" stop-color="#8933ef"/><stop offset="1" stop-color="#ff2dbb"/></linearGradient><clipPath id="clip-path-2"><path class="cls-1" d="M266.82,336a132.65,132.65,0,0,0,84.94,123.9c.72.29,1.45.53,2.18.8A129.46,129.46,0,0,0,372.18,466h0a126.62,126.62,0,0,0,55.16-.24l65.34,270.26H306.92L362.8,504.89a171.74,171.74,0,0,1-38-13.25L262.88,747.89a22.82,22.82,0,0,0,22.18,28.18H514.55a22.82,22.82,0,0,0,22.18-28.18l-75.68-313h0l-5.9-24.39A92.83,92.83,0,0,1,418,426.92a91.05,91.05,0,0,1-18.14,2,93.3,93.3,0,1,1,86.62-59.44l13.11,54.25A132.94,132.94,0,1,0,266.82,336"/></clipPath><linearGradient id="Naamloos_verloop_2" y1="1079.98" y2="1079.98" gradientTransform="matrix(1015.95, 0, 0, -1015.95, -85.14, 1097689.84)" xlink:href="#Naamloos_verloop"/><clipPath id="clip-path-3"><path class="cls-1" d="M342.32,120.53l-1,.36c-80,28.32-162.44,57.47-244.07,86.19V428.92h40V235.41c73.08-25.75,146.33-51.66,217.41-76.81l1-.36,24.15-8.54V107.27Z"/></clipPath><linearGradient id="Naamloos_verloop_3" y1="1080.24" y2="1080.24" gradientTransform="matrix(1015.95, 0, 0, -1015.95, -288.74, 1097739.04)" xlink:href="#Naamloos_verloop"/><clipPath id="clip-path-4"><path class="cls-1" d="M97.37,469l2,42.73v.3c.85,20.92,1.65,40.68,2.84,59.31v.07c2.38,38.15,7.12,72.6,14.47,105.33,7.8,34.79,18.43,64.63,32.49,91.26,20.28,38.37,50,73.37,90.9,107,34.59,28.45,72.81,54.2,116.88,78.72,7.54,4.21,15.19,8.35,22.88,12.46V920.6c-1.16-.63-2.3-1.27-3.43-1.9-41.94-23.34-78.22-47.76-110.93-74.66-36.7-30.18-63.18-61.19-80.93-94.77-12.38-23.45-21.81-50.06-28.83-81.35-6.89-30.64-11.33-63-13.58-99.07v-.11c-1.16-18.16-1.95-37.69-2.79-58.39v-.5L137.41,469Z"/></clipPath><linearGradient id="Naamloos_verloop_4" y1="1079.93" y2="1079.93" gradientTransform="matrix(1015.95, 0, 0, -1015.95, 28.95, 1097870.62)" xlink:href="#Naamloos_verloop"/><clipPath id="clip-path-5"><path class="cls-1" d="M419.83,149.53l25,8.87.25.09.11,0c77.27,27.33,147.74,52.25,217.09,76.69l-1.12,193.7h40l1.29-222c-77.38-27.23-154.34-54.44-244.1-86.19l0,0h0l-38.41-13.65Z"/></clipPath><linearGradient id="Naamloos_verloop_5" y1="1080.02" y2="1080.02" gradientTransform="matrix(1015.95, 0, 0, -1015.95, -194.43, 1097510.89)" xlink:href="#Naamloos_verloop"/><clipPath id="clip-path-6"><path class="cls-1" d="M660.9,469l-.25,43.17c-.83,21.3-1.62,39.15-2.72,56.77-2.25,35.85-6.71,68.28-13.61,99.13-7,31.25-16.41,57.8-28.79,81.19-17.78,33.63-44.29,64.66-81,94.89-32.52,26.77-68.8,51.19-110.93,74.66l-3.72,2.06v45.5c7.73-4.12,15.51-8.33,23.2-12.62,44.25-24.65,82.48-50.4,116.88-78.72,40.92-33.65,70.67-68.66,91-107.08,14.06-26.57,24.68-56.37,32.47-91.14,7.36-32.92,12.11-67.39,14.49-105.36,1.14-18.09,1.94-36.47,2.8-58.39L700.9,469Z"/></clipPath><linearGradient id="Naamloos_verloop_6" y1="1079.71" y2="1079.71" gradientTransform="matrix(1015.95, 0, 0, -1015.95, 123.17, 1097643.12)" xlink:href="#Naamloos_verloop"/></defs><title>SafeHaven_Brandmark_Color</title><g class="cls-2"><rect class="cls-3" x="-264.73" y="-124.55" width="1329.11" height="1329.11" transform="translate(-264.73 440.88) rotate(-45)"/></g><g class="cls-4"><rect class="cls-5" x="97.9" y="187.61" width="603.81" height="603.81" transform="translate(-229.04 426.08) rotate(-45)"/></g><g class="cls-6"><rect class="cls-7" x="24.88" y="54.46" width="427.26" height="427.26" transform="translate(-119.71 247.18) rotate(-45)"/></g><g class="cls-8"><rect class="cls-9" x="-37.04" y="441.9" width="551.26" height="551.26" transform="translate(-437.49 378.87) rotate(-45)"/></g><g class="cls-10"><rect class="cls-11" x="347.43" y="54.3" width="427.39" height="427.39" transform="translate(-25.16 475.27) rotate(-45)"/></g><g class="cls-12"><rect class="cls-13" x="285.14" y="442.41" width="550.45" height="550.45" transform="translate(-343.32 606.43) rotate(-45)"/></g></svg>
