<svg id="Laag_1" data-name="Laag 1" xmlns="http://www.w3.org/2000/svg" xmlns:xlink="http://www.w3.org/1999/xlink" viewBox="0 0 1080 240.85"><defs><style>.cls-1{fill:none;}.cls-2{clip-path:url(#clip-path);}.cls-3{fill:#1d1d1b;}</style><clipPath id="clip-path" transform="translate(0 0)"><rect class="cls-1" width="1080" height="240.85"/></clipPath></defs><title>SafeHaven_Logo_Negative_Black</title><g class="cls-2"><path class="cls-3" d="M247.4,146.94c3.06,13.31,12.41,19.6,28,19.6,16,0,22.66-6.83,22.66-16.9,0-10.79-5.94-16.18-28.59-21.4-32.19-7.73-41.18-19.24-41.18-36.32,0-20.5,15.28-35.42,44.24-35.42,31.82,0,44.59,17.62,46.39,35.06H295.41c-1.62-8.81-6.83-17.26-23.55-17.26-12.41,0-19.61,5.21-19.61,15.1,0,9.71,5.94,13.67,26.62,18.52,35.78,8.46,43.15,22.12,43.15,39,0,21.76-16.36,37.4-48.37,37.4-31.46,0-46.93-16-49.8-37.4Z" transform="translate(0 0)"/><path class="cls-3" d="M411,160.07c0,8.63.72,20.32,1.26,22.65H390.88c-.72-2-1.26-6.65-1.44-10.06-3.24,5.57-9.89,12.22-26.79,12.22-22.12,0-31.47-14.56-31.47-28.77,0-20.85,16.72-30.56,43.87-30.56h14v-6.3c0-7.19-2.34-14.74-16.19-14.74-12.22,0-14.74,5.57-16,12.4h-21.4c1.26-15.1,10.79-28.95,38.3-28.77,24.1.18,37.22,9.71,37.22,31.29Zm-21.75-20.5H377.21c-16.36,0-23.56,4.85-23.56,15.28,0,7.56,5,13.67,14.93,13.67,18.34,0,20.68-12.59,20.68-26.25Z" transform="translate(0 0)"/><path class="cls-3" d="M433.3,182.73V107.38h-14V90.3h14V81.13c0-18.34,8.45-31.64,28.59-31.64,4,0,9,.36,11.33,1.07v18a31.94,31.94,0,0,0-6.29-.72c-8.27,0-11.33,3.77-11.33,14.92V90.3h16.9v17.08H455.6v75.35Z" transform="translate(0 0)"/><path class="cls-3" d="M497.3,141.19c0,13.84,7,25.89,20.86,25.89,11.87,0,15.65-5.39,18.16-11.33H558.8c-3.42,11.51-13.49,29.13-41.36,29.13-29.84,0-42.61-23-42.61-47.11,0-28.59,14.56-49.63,43.69-49.63,31.11,0,41.54,23.2,41.54,45.14a55.67,55.67,0,0,1-.36,7.91ZM537.58,127c-.18-12.4-5.57-22.47-19.24-22.47S499.1,113.86,497.85,127Z" transform="translate(0 0)"/><polygon class="cls-3" points="605.89 58.3 629.27 58.3 629.27 108.1 684.47 108.1 684.47 58.3 707.67 58.3 707.67 182.73 684.47 182.73 684.47 127.34 629.27 127.34 629.27 182.73 605.89 182.73 605.89 58.3"/><path class="cls-3" d="M801.69,160.07c0,8.63.72,20.32,1.26,22.65h-21.4c-.72-2-1.26-6.65-1.44-10.06-3.23,5.57-9.89,12.22-26.79,12.22-22.11,0-31.46-14.56-31.46-28.77,0-20.85,16.72-30.56,43.87-30.56h14v-6.3c0-7.19-2.33-14.74-16.18-14.74-12.23,0-14.74,5.57-16,12.4h-21.4c1.26-15.1,10.79-28.95,38.3-28.77,24.09.18,37.22,9.71,37.22,31.29Zm-21.76-20.5h-12c-16.36,0-23.56,4.85-23.56,15.28,0,7.56,5,13.67,14.93,13.67,18.34,0,20.67-12.59,20.67-26.25Z" transform="translate(0 0)"/><path class="cls-3" d="M833,90.3c10.06,33.45,18,61.14,20.13,72.47h.18C855.8,149.1,865,121.41,875,90.3h22.3l-33.09,92.43H840.52L808.87,90.3Z" transform="translate(0 0)"/><path class="cls-3" d="M922.14,141.19c0,13.84,7,25.89,20.86,25.89,11.87,0,15.64-5.39,18.16-11.33h22.48c-3.42,11.51-13.49,29.13-41.36,29.13-29.85,0-42.61-23-42.61-47.11,0-28.59,14.56-49.63,43.69-49.63,31.11,0,41.54,23.2,41.54,45.14a55.67,55.67,0,0,1-.36,7.91ZM962.42,127c-.18-12.4-5.57-22.47-19.24-22.47s-19.24,9.35-20.5,22.47Z" transform="translate(0 0)"/><path class="cls-3" d="M999.44,113.5c0-7.91,0-16.19-.17-23.2h21.57a99.73,99.73,0,0,1,.9,13c3.24-6.47,10.79-15.11,27.51-15.11,18.16,0,30.75,11.87,30.75,35.61v59h-22.3V126.26c0-11.5-4.13-19.77-16.36-19.77-13.13,0-19.6,8.45-19.6,25.53v50.71h-22.3Z" transform="translate(0 0)"/><path class="cls-3" d="M89.16,8.93a1.78,1.78,0,0,1,.63.11L106.4,15q31.47,11.13,63,22.21l-.44,77.53c-.2,5.09-.39,9.35-.65,13.53a162.93,162.93,0,0,1-3.52,25.48,92.71,92.71,0,0,1-8.4,23.49c-5.33,10.08-13,19.16-23.45,27.75a185.5,185.5,0,0,1-28,18.85c-5.07,2.82-10.24,5.49-14.79,7.84a2.38,2.38,0,0,1-1,.29,1.58,1.58,0,0,1-.71-.17c-4.94-2.56-10.05-5.19-15-8a184.92,184.92,0,0,1-27.95-18.84C35,196.35,27.3,187.27,22,177.19a93.39,93.39,0,0,1-8.41-23.49,160.61,160.61,0,0,1-3.51-25.49c-.28-4.29-.46-8.7-.65-13.52l-.48-10.53v-67Q40.46,26.1,72.06,14.89l10.75-3.8L88.58,9a1.81,1.81,0,0,1,.58-.09m0-8.93a10.77,10.77,0,0,0-3.6.62L79.81,2.68,69.08,6.48q-33,11.67-66,23.3L0,30.85v73.52L.49,115.1c.19,4.68.38,9.25.66,13.68a169.38,169.38,0,0,0,3.71,26.87,102.3,102.3,0,0,0,9.22,25.71c5.9,11.15,14.29,21.12,25.67,30.47A194.06,194.06,0,0,0,69,231.58c5.09,2.84,10.27,5.51,15.27,8.1a10.57,10.57,0,0,0,4.81,1.17,11.1,11.1,0,0,0,5.12-1.29c4.65-2.39,9.91-5.11,15.06-8a194,194,0,0,0,29.28-19.75c11.38-9.35,19.77-19.32,25.67-30.47a101.77,101.77,0,0,0,9.22-25.71,171.84,171.84,0,0,0,3.72-26.87c.27-4.31.46-8.67.66-13.89l.49-84-3.05-1.07q-33-11.57-65.9-23.25L92.78.63A10.57,10.57,0,0,0,89.16,0" transform="translate(0 0)"/><path class="cls-3" d="M119.7,166.78,102.82,97l-1.32-5.44a20.78,20.78,0,1,1,7-9.14l2.92,12.1a29.65,29.65,0,1,0-36.81,6.24,30.24,30.24,0,0,0,3.86,1.81l.48.18a29.33,29.33,0,0,0,4.07,1.2h0a29.8,29.8,0,0,0,6.16.65,28.81,28.81,0,0,0,6.14-.71l14.57,60.27H68.45l12.46-51.55a38.27,38.27,0,0,1-8.47-3L58.62,166.78a5.1,5.1,0,0,0,5,6.29h51.18a5.1,5.1,0,0,0,5-6.29" transform="translate(0 0)"/><path class="cls-3" d="M76.34,26.88l-.23.08C58.26,33.27,39.89,39.77,21.68,46.18V95.65H30.6V52.5C46.9,46.76,63.23,41,79.09,35.37l.22-.08,5.39-1.91V23.92Z" transform="translate(0 0)"/><path class="cls-3" d="M59.2,188.23C51,181.5,45.11,174.58,41.15,167.09A72.51,72.51,0,0,1,34.72,149a138.91,138.91,0,0,1-3-22.09h0v0c-.26-4-.44-8.4-.62-13v0h0v0h0l-.42-9.12H21.71l.44,9.53v.06c.19,4.67.37,9.08.64,13.23h0A148.28,148.28,0,0,0,26,150.91a81.22,81.22,0,0,0,7.24,20.35c4.52,8.56,11.16,16.36,20.27,23.86A173.47,173.47,0,0,0,79.6,212.67c1.68.94,3.39,1.87,5.1,2.78V205.3l-.76-.42A163.84,163.84,0,0,1,59.2,188.23" transform="translate(0 0)"/><path class="cls-3" d="M99.25,35.35h0c17.24,6.1,33,11.66,48.42,17.1l-.25,43.2h8.92l.29-49.5C139.39,40.08,122.23,34,102.21,26.93h0l-8.56-3v9.47l5.56,2Z" transform="translate(0 0)"/><path class="cls-3" d="M147.39,104.58l-.06,9.63c-.18,4.75-.36,8.73-.61,12.66a140.34,140.34,0,0,1-3,22.1,71.88,71.88,0,0,1-6.42,18.11c-4,7.5-9.88,14.42-18.08,21.16a163.92,163.92,0,0,1-24.73,16.65l-.83.46V215.5c1.72-.92,3.45-1.86,5.17-2.82a172.54,172.54,0,0,0,26.06-17.55c9.13-7.51,15.77-15.32,20.29-23.88a80.14,80.14,0,0,0,7.24-20.33,149.72,149.72,0,0,0,3.24-23.49c.25-4,.43-8.14.62-13l.06-9.82Z" transform="translate(0 0)"/></g></svg>
