<svg xmlns="http://www.w3.org/2000/svg" xmlns:xlink="http://www.w3.org/1999/xlink" viewBox="0 0 233.37 234.99">
  <defs>
    <linearGradient id="a" x1="130.31" y1="1136.48" x2="364.88" y2="931.35" gradientTransform="translate(10.66 -791.97)" gradientUnits="userSpaceOnUse">
      <stop offset="0" stop-color="#5717ff"/>
      <stop offset="0.19" stop-color="#5a17fc"/>
      <stop offset="0.35" stop-color="#6518f2"/>
      <stop offset="0.51" stop-color="#771ae1"/>
      <stop offset="0.66" stop-color="#901cc9"/>
      <stop offset="0.8" stop-color="#b01faa"/>
      <stop offset="0.94" stop-color="#d72285"/>
      <stop offset="1" stop-color="#eb2472"/>
    </linearGradient>
  </defs>
  <title>logo</title>
  <g>
    <path d="M291,212l0,0h0Z" transform="translate(-159.32 -102.5)" style="fill: #5717ff"/>
    <path d="M392.68,102.5,329.87,204.29,364.13,194c-6,10.27-11.42,19.88-17.13,29.33-18.5,30.61-37,61.23-60.82,88.14-18.26,20.66-41.22,30-68.52,24.46-28.72-5.85-47.88-23.7-55.56-52-8-29.55,1.61-54.46,24.33-74.19C215.61,184.42,249,165.17,282,145.54c13.19-7.83,26.61-15.28,40.92-23.47-7.65,14.16-14.72,27.28-21.8,40.39,0,.13-.05.26-.07.39l.52-.13,91.1-60.22" transform="translate(-159.32 -102.5)" style="fill: url(#a)"/>
    <path d="M268.2,296a47.63,47.63,0,0,1-67.36-67.36c.37-.37.72-.72,2.08-2,19-17.25,34.6-26.24,74.6-51.82l3.94-2.52q-6.06,15.21-12.1,30.43l66.84-41.58-41.72,67.45,35.32-10.11c-.67,1-1.33,1.95-2,2.92a681.69,681.69,0,0,1-57.31,72.11l0,0C269.54,294.57,268.59,295.58,268.2,296Z" transform="translate(-159.32 -102.5)" style="fill: #ff237b"/>
    <path d="M261.64,262.46a27.11,27.11,0,1,1-27.12-27.25v-20.5a47.64,47.64,0,1,0,47.63,47.85Z" transform="translate(-159.32 -102.5)" style="fill: #eb2472"/>
    <g>
      <circle cx="54.55" cy="156.4" r="3.57" style="fill: #1b1464"/>
      <circle cx="95.56" cy="156.4" r="3.57" style="fill: #1b1464"/>
    </g>
    <g>
      <path d="M244,276.73a10.47,10.47,0,0,0-7.49-4.81c-4.95-.83-9.79,1.26-11.82,4.81a17.29,17.29,0,0,0,6.5,2.46A18.33,18.33,0,0,0,244,276.73Z" transform="translate(-159.32 -102.5)" style="fill: #00ffe0"/>
      <path d="M218.88,266.94c0,3.85,2.21,7.45,5.84,9.79,2-3.55,6.87-5.64,11.82-4.81a10.47,10.47,0,0,1,7.49,4.81,12.45,12.45,0,0,0,5.51-7.25,10.11,10.11,0,0,0,.32-2.54Z" transform="translate(-159.32 -102.5)" style="fill: #1b1464"/>
    </g>
  </g>
</svg>
