<svg id="Layer_1" data-name="Layer 1" xmlns="http://www.w3.org/2000/svg" xmlns:xlink="http://www.w3.org/1999/xlink" viewBox="0 0 2810.87 3299.89"><defs><style>.cls-1,.cls-5,.cls-7{fill:none;}.cls-2{fill:#fff;}.cls-3{fill:url(#linear-gradient);}.cls-4{fill:url(#linear-gradient-2);}.cls-5,.cls-7{stroke-miterlimit:10;}.cls-5{stroke-width:71.37px;stroke:url(#linear-gradient-3);}.cls-6{clip-path:url(#clip-path);}.cls-7{stroke:#fff;stroke-width:3.24px;}.cls-8{fill:url(#linear-gradient-4);}.cls-9{fill:url(#linear-gradient-5);}</style><linearGradient id="linear-gradient" x1="1407" y1="2306.98" x2="1407" y2="275.53" gradientUnits="userSpaceOnUse"><stop offset="0" stop-color="#c241c9" stop-opacity="0"/><stop offset="1" stop-color="#14337a"/></linearGradient><linearGradient id="linear-gradient-2" x1="1407" y1="2475.61" x2="1407" y2="109.05" gradientUnits="userSpaceOnUse"><stop offset="0" stop-color="#c241c9"/><stop offset="1" stop-color="#fff"/></linearGradient><linearGradient id="linear-gradient-3" x1="1407" y1="2511.3" x2="1407" y2="73.37" gradientUnits="userSpaceOnUse"><stop offset="0" stop-color="#c241c9"/><stop offset="1" stop-color="#14337a"/></linearGradient><clipPath id="clip-path"><path class="cls-1" d="M2126.07,1133.17l-.45,8.84c-.5,9.81-1,19.61-1.45,29.41q-1.43,31.15-2.65,62.32c-1.84,45-3.58,87.47-6.26,130.26-5.31,84.93-16,162.32-32.6,236.57-18,80.58-42.9,150.14-76,212.65-48,90.66-117.4,172.69-212.31,250.77-77.12,63.45-162.38,120.9-260.66,175.63-41.64,23.19-84.67,45.61-126.73,67.36-42-21.75-85.08-44.16-126.73-67.36-98.27-54.73-183.53-112.18-260.66-175.63-94.9-78.08-164.35-160.11-212.3-250.77-33.06-62.51-57.91-132.07-76-212.65-16.63-74.25-27.29-151.63-32.6-236.57-2.68-42.83-4.42-85.35-6.27-130.37q-1.28-31.11-2.64-62.21c-.44-9.73-.94-19.47-1.44-29.19l-.47-9.06V529.65c190.67-67,383.13-135.11,569.87-201.17l105.08-37.16c15.2-5.38,30.36-10.82,44.12-15.79,13.78,5,28.94,10.42,44.15,15.79l104.75,37.06c186.83,66.09,379.41,134.21,570.17,201.27Z"/></clipPath><linearGradient id="linear-gradient-4" x1="1413.41" y1="2464.35" x2="1413.41" y2="118.21" xlink:href="#linear-gradient-3"/><linearGradient id="linear-gradient-5" x1="1405.44" y1="3196.59" x2="1405.44" y2="2669.75" gradientUnits="userSpaceOnUse"><stop offset="0" stop-color="#14337a"/><stop offset="1" stop-color="#c241c9"/></linearGradient></defs><title>SafeHaven-Logo2019</title><path class="cls-2" d="M2244.08,397q-369.32-129.63-738.17-260.53-27.51-9.74-54.94-19.71a129.21,129.21,0,0,0-87.93,0q-27.45,9.93-54.94,19.71Q939.1,267,569.93,397c-22.41,7.87-39,19.29-46.25,42.39v698c.69,13.84,1.44,27.68,2.07,41.53,3,65.13,5,130.31,9.06,195.37,5.52,88.25,16.91,175.84,36.26,262.21,19.77,88.26,48.63,173.36,91,253.55,62.7,118.53,150.23,216.14,253.15,300.81,88.92,73.16,184.68,136.37,285.09,192.29,48.53,27,97.89,52.55,147.26,78.06a129.45,129.45,0,0,0,118.79,0c49.37-25.51,98.73-51,147.25-78.06,100.42-55.92,196.18-119.13,285.1-192.29,102.92-84.67,190.45-182.28,253.15-300.81,42.41-80.19,71.27-165.29,91-253.55,19.34-86.37,30.74-174,36.26-262.21,4.07-65.06,6.09-130.24,9.06-195.37.62-13.85,1.38-27.69,2.07-41.53v-698C2283.11,416.29,2266.49,404.87,2244.08,397Z"/><path class="cls-3" d="M2126.07,1133.17l-.45,8.84c-.5,9.81-1,19.61-1.45,29.41q-1.43,31.15-2.65,62.32c-1.84,45-3.58,87.47-6.26,130.26-5.31,84.93-16,162.32-32.6,236.57-18,80.58-42.9,150.14-76,212.65-48,90.66-117.4,172.69-212.31,250.77-77.12,63.45-162.38,120.9-260.66,175.63-41.64,23.19-84.67,45.61-126.73,67.36-42-21.75-85.08-44.16-126.73-67.36-98.27-54.73-183.53-112.18-260.66-175.63-94.9-78.08-164.35-160.11-212.3-250.77-33.06-62.51-57.91-132.07-76-212.65-16.63-74.25-27.29-151.63-32.6-236.57-2.68-42.83-4.42-85.35-6.27-130.37q-1.28-31.11-2.64-62.21c-.44-9.73-.94-19.47-1.44-29.19l-.47-9.06V529.65c190.67-67,383.13-135.11,569.87-201.17l105.08-37.16c15.2-5.38,30.36-10.82,44.12-15.79,13.78,5,28.94,10.42,44.15,15.79l104.75,37.06c186.83,66.09,379.41,134.21,570.17,201.27Z"/><path class="cls-4" d="M2244.08,397q-369.32-129.63-738.17-260.53-27.51-9.74-54.94-19.71a129.21,129.21,0,0,0-87.93,0q-27.45,9.93-54.94,19.71Q939.1,267,569.93,397c-22.41,7.87-39,19.29-46.25,42.39v698c.69,13.84,1.44,27.68,2.07,41.53,3,65.13,5,130.31,9.06,195.37,5.52,88.25,16.91,175.84,36.26,262.21,19.77,88.26,48.63,173.36,91,253.55,62.7,118.53,150.23,216.14,253.15,300.81,88.92,73.16,184.68,136.37,285.09,192.29,48.53,27,97.89,52.55,147.26,78.06a129.45,129.45,0,0,0,118.79,0c49.37-25.51,98.73-51,147.25-78.06,100.42-55.92,196.18-119.13,285.1-192.29,102.92-84.67,190.45-182.28,253.15-300.81,42.41-80.19,71.27-165.29,91-253.55,19.34-86.37,30.74-174,36.26-262.21,4.07-65.06,6.09-130.24,9.06-195.37.62-13.85,1.38-27.69,2.07-41.53v-698C2283.11,416.29,2266.49,404.87,2244.08,397Zm-118,736.17-.45,8.84c-.5,9.81-1,19.61-1.45,29.41q-1.43,31.15-2.65,62.32c-1.84,45-3.58,87.47-6.26,130.26-5.31,84.93-16,162.32-32.6,236.57-18,80.58-42.9,150.14-76,212.65-48,90.66-117.4,172.69-212.31,250.77-77.12,63.45-162.38,120.9-260.66,175.63-41.64,23.19-84.67,45.61-126.73,67.36-42-21.75-85.08-44.16-126.73-67.36-98.27-54.73-183.53-112.18-260.66-175.63-94.9-78.08-164.35-160.11-212.3-250.77-33.06-62.51-57.91-132.07-76-212.65-16.63-74.25-27.29-151.63-32.6-236.57-2.68-42.83-4.42-85.35-6.27-130.37q-1.28-31.11-2.64-62.21c-.44-9.73-.94-19.47-1.44-29.19l-.47-9.06V529.65c190.67-67,383.13-135.11,569.87-201.17l105.08-37.16c15.2-5.38,30.36-10.82,44.12-15.79,13.78,5,28.94,10.42,44.15,15.79l104.75,37.06c186.83,66.09,379.41,134.21,570.17,201.27Z"/><path class="cls-5" d="M2244.08,397q-369.32-129.63-738.17-260.53-27.51-9.74-54.94-19.71a129.21,129.21,0,0,0-87.93,0q-27.45,9.93-54.94,19.71Q939.1,267,569.93,397c-22.41,7.87-39,19.29-46.25,42.39v698c.69,13.84,1.44,27.68,2.07,41.53,3,65.13,5,130.31,9.06,195.37,5.52,88.25,16.91,175.84,36.26,262.21,19.77,88.26,48.63,173.36,91,253.55,62.7,118.53,150.23,216.14,253.15,300.81,88.92,73.16,184.68,136.37,285.09,192.29,48.53,27,97.89,52.55,147.26,78.06a129.45,129.45,0,0,0,118.79,0c49.37-25.51,98.73-51,147.25-78.06,100.42-55.92,196.18-119.13,285.1-192.29,102.92-84.67,190.45-182.28,253.15-300.81,42.41-80.19,71.27-165.29,91-253.55,19.34-86.37,30.74-174,36.26-262.21,4.07-65.06,6.09-130.24,9.06-195.37.62-13.85,1.38-27.69,2.07-41.53v-698C2283.11,416.29,2266.49,404.87,2244.08,397Z"/><g class="cls-6"><circle class="cls-2" cx="1371.46" cy="347.09" r="35.54"/><circle class="cls-2" cx="1625.06" cy="687.15" r="35.54"/><circle class="cls-2" cx="970.29" cy="421.42" r="35.54"/><circle class="cls-2" cx="1290.77" cy="773.6" r="35.54"/><circle class="cls-2" cx="1290.77" cy="1209.72" r="35.54"/><circle class="cls-2" cx="730.73" cy="1361.5" r="35.54"/><circle class="cls-2" cx="2121.7" cy="1713.08" r="35.54"/><circle class="cls-2" cx="628.91" cy="1358.25" r="35.54"/><circle class="cls-2" cx="1038.13" cy="1605.49" r="35.54"/><circle class="cls-2" cx="911.33" cy="1713.08" r="35.54"/><circle class="cls-2" cx="1301.18" cy="1861.01" r="35.54"/><circle class="cls-2" cx="1013" cy="2088.68" r="35.54"/><circle class="cls-2" cx="1219.68" cy="2124.22" r="35.54"/><circle class="cls-2" cx="1625.06" cy="1713.08" r="35.54"/><circle class="cls-2" cx="1855.61" cy="1361.5" r="25.13"/><circle class="cls-2" cx="766.28" cy="941.47" r="35.54"/><circle class="cls-2" cx="1208.03" cy="977.01" r="35.54"/><circle class="cls-2" cx="1290.77" cy="518.08" r="25.13"/><circle class="cls-2" cx="1467.52" cy="446.55" r="17.77"/><circle class="cls-2" cx="1361.74" cy="654.84" r="17.77"/><circle class="cls-2" cx="1190.26" cy="614.58" r="17.77"/><circle class="cls-2" cx="1082.8" cy="492.94" r="12.57"/><circle class="cls-2" cx="730.73" cy="617.82" r="12.57"/><circle class="cls-2" cx="1073.67" cy="786.17" r="12.57"/><circle class="cls-2" cx="1326.31" cy="476.01" r="12.57"/><circle class="cls-2" cx="1467.52" cy="324.11" r="12.57"/><circle class="cls-2" cx="863.22" cy="847.93" r="12.57"/><circle class="cls-2" cx="778.84" cy="1056.66" r="12.57"/><circle class="cls-2" cx="1061.11" cy="1044.1" r="12.57"/><circle class="cls-2" cx="1070.23" cy="1087" r="12.57"/><circle class="cls-2" cx="1184.14" cy="1153.16" r="12.57"/><circle class="cls-2" cx="1086.24" cy="1456.72" r="12.57"/><circle class="cls-2" cx="1419.57" cy="674.58" r="12.57"/><circle class="cls-2" cx="946.87" cy="1245.26" r="12.57"/><circle class="cls-2" cx="838.09" cy="1323.8" r="12.57"/><circle class="cls-2" cx="1013" cy="900.92" r="12.57"/><circle class="cls-2" cx="946.87" cy="617.82" r="12.57"/><circle class="cls-2" cx="1222.56" cy="830.16" r="17.77"/><circle class="cls-2" cx="1786.45" cy="1069.23" r="17.77"/><circle class="cls-2" cx="1858.85" cy="980.25" r="17.77"/><circle class="cls-2" cx="1854.05" cy="1170.93" r="17.77"/><circle class="cls-2" cx="1927.14" cy="1311.42" r="17.77"/><circle class="cls-2" cx="1768.68" cy="1843.24" r="17.77"/><circle class="cls-2" cx="1344.08" cy="2088.68" r="17.77"/><circle class="cls-2" cx="1002.59" cy="1950.35" r="17.77"/><circle class="cls-2" cx="889.23" cy="1386.63" r="17.77"/><circle class="cls-2" cx="970.29" cy="738.06" r="17.77"/><circle class="cls-2" cx="1812.71" cy="543.21" r="17.77"/><line class="cls-7" x1="730.73" y1="617.82" x2="863.22" y2="847.93"/><polyline class="cls-7" points="1625.06 687.14 1858.85 980.25 1812.71 543.21 2046.77 439.79"/><polyline class="cls-7" points="952.51 614.58 970.29 421.42 838.09 428.78 730.73 617.82 946.87 617.82 1190.26 614.58 1073.67 786.17 1208.03 977.01 1061.11 1044.1 1184.14 1153.16 946.87 1245.26 889.23 1386.63 1086.24 1456.72 1038.13 1605.49 1219.68 2124.22 1361.86 2351.89 1212.48 2281.28 1002.59 1950.35"/><polygon class="cls-7" points="766.28 941.47 604.41 998.02 614.5 798.73 766.28 941.47"/><polygon class="cls-7" points="911.33 1713.08 703.84 1886.47 819.11 2020.48 911.33 1713.08"/><polyline class="cls-7" points="1525.16 2346.12 1775.88 2263.99 1768.67 1843.24 1344.08 2088.68 1744.18 2200.59 1506.43 2393.67 1265.64 2364.86"/><polyline class="cls-7" points="1013 2088.68 889.23 2020.48 850.65 2062.26 1211.04 2310.1 1219.68 2124.22 1344.08 2095.4"/><line class="cls-7" x1="1344.08" y1="2088.68" x2="1265.64" y2="2344.68"/><polyline class="cls-7" points="1927.14 1311.42 2211.04 1132.87 1854.05 1170.93 2200.95 880.71"/><polyline class="cls-7" points="2203.83 703.48 1855.61 984.23 2065.5 428.78 2198.07 651.6 1290.77 518.08 1208.03 249.59 1255.23 256.79 1190.26 614.58 1361.73 654.84 1419.57 674.58 1780.2 363.42"/><polyline class="cls-7" points="1391.5 898.38 1222.56 830.16 1290.77 518.08 1326.31 476.01 1290.77 773.6 970.29 421.42"/><polyline class="cls-7" points="1476.17 928.26 1625.06 687.14 1841.08 363.42"/><polyline class="cls-7" points="1689.42 311.55 1449.75 898.38 1371.46 347.09 1467.52 324.11 1467.52 446.55 1660.61 336.68"/><line class="cls-7" x1="1523.72" y1="888.35" x2="2189.42" y2="696.27"/><polyline class="cls-7" points="1546.77 928.26 1860.55 980.25 2189.42 991.66"/><polyline class="cls-7" points="2195.19 913.48 1855.61 1361.49 1421.85 672.62"/><polyline class="cls-7" points="1485.23 1368.86 1786.45 1069.23 1858.85 980.25 1854.05 1170.93 1927.14 1311.42 1855.61 1361.49 1786.45 1069.23 1625.06 1713.08 1301.18 1861.01 1038.13 1605.49 911.33 1713.08 1002.59 1950.35 1013 2088.68 1219.68 2124.22 1301.18 1861.01 1344.08 2088.68 1625.06 1713.08 1768.67 1843.24 1855.61 1361.49 2121.7 1713.08 1768.67 1843.24 2023.72 1993.1"/><line class="cls-7" x1="1625.06" y1="687.15" x2="1516.51" y2="1483.01"/><polygon class="cls-7" points="1467.52 324.11 1589.52 245.26 1449.75 229.41 1467.52 324.11"/><polygon class="cls-7" points="1371.46 347.09 1440.14 240.94 1391.5 220.77 1371.46 347.09"/><line class="cls-7" x1="2223.93" y1="835.36" x2="1812.71" y2="543.21"/><line class="cls-7" x1="1290.77" y1="518.08" x2="2251.5" y2="617.82"/><polyline class="cls-7" points="1854.05 1170.93 2189.42 1597.81 2241.78 1513.27 1855.61 1361.49 1771.14 336.68"/><polyline class="cls-7" points="2121.7 1713.08 1927.14 1311.42 1523.72 977.01 1421.05 1544.01"/><path class="cls-7" d="M1498.26,1382.27c5.77-3.48,789.63,276.6,789.63,276.6L1301.18,1861"/><line class="cls-7" x1="911.33" y1="1713.08" x2="1855.61" y2="1361.5"/><polyline class="cls-7" points="1505.95 1580.52 1381.01 2506.55 1625.06 1713.08 1871.82 363.42 1697.04 297.14 1812.71 543.21 1467.52 446.55 1371.46 347.09 970.29 421.42 1290.77 518.08 1326.31 476.01 1467.52 324.11"/><line class="cls-7" x1="1625.06" y1="1713.08" x2="1527.08" y2="1552.24"/><polyline class="cls-7" points="1434.86 1605.49 1344.08 2088.68 1038.13 1605.49 1625.06 1713.08 1500.66 1051.46"/><polyline class="cls-7" points="616.42 1570.07 1013 2088.68 1301.18 1861.01"/><polyline class="cls-7" points="685.34 1736.13 730.73 1361.49 1855.61 1361.49 1453.11 1117.02 1255.23 1017.06 1184.14 1153.16 1070.23 1087 1086.24 1456.72 1301.18 1861.01"/><polyline class="cls-7" points="730.73 1361.49 766.28 941.47 946.87 1245.26 1070.23 1087 778.84 941.47"/><line class="cls-7" x1="766.28" y1="941.47" x2="1208.03" y2="977.01"/><polyline class="cls-7" points="1184.14 1153.16 1086.24 1456.72 946.87 1245.26 1013 900.92 778.84 1056.66 529.97 1096.06"/><line class="cls-7" x1="1290.77" y1="773.6" x2="604.41" y2="689.29"/><polyline class="cls-7" points="970.29 421.42 1038.13 1605.49 628.91 1358.25 730.73 1361.49 1038.13 1605.49 1290.77 1209.72 1184.14 1153.16 1208.03 977.01 1222.56 830.16 1290.77 773.6 1419.57 674.58 1625.06 687.14 1467.52 446.55 1290.77 518.08 1190.26 614.58 1082.8 492.94 970.29 421.42 970.29 738.06 1073.67 786.17 1013 900.92 863.22 847.93 766.28 941.47 778.84 1056.66 1061.11 1044.1 1070.23 1087 946.87 1245.26 838.09 1323.8 778.84 1056.66 730.73 1361.49 911.33 1713.08 1301.18 1861.01 1855.61 1361.49"/><polyline class="cls-7" points="1086.24 1456.72 1013 900.92 1061.11 1044.1 1073.67 786.17"/><polyline class="cls-7" points="1290.77 1087 1290.77 1209.72 1361.86 1099.57 1331.6 1382.24 889.23 1386.63 1002.59 1950.35 1344.08 2088.68"/><polyline class="cls-7" points="1419.57 830.16 1361.73 654.84 1301.18 905.92"/><polyline class="cls-7" points="1290.77 518.08 1419.57 674.58 1326.31 860.49"/><polygon class="cls-7" points="730.73 617.82 685.34 456.96 593.37 645.84 730.73 617.82"/><polyline class="cls-7" points="730.73 617.82 970.29 738.06 1331.6 260.63 1255.23 276.76 1371.46 347.09 1313.75 220.77"/><polyline class="cls-7" points="766.28 428.78 946.87 617.82 863.22 847.93 518.44 798.73"/><polyline class="cls-7" points="946.87 617.82 1082.8 492.94 1025.56 311.55 1140.91 311.55 1326.31 476.01"/><line class="cls-7" x1="730.73" y1="1361.5" x2="556.86" y2="1223.17"/><line class="cls-7" x1="1002.59" y1="1950.35" x2="778.84" y2="1993.58"/><polyline class="cls-7" points="1219.68 2124.22 984.82 2159.76 1240.33 2368.22 1598.17 2351.89 1557.82 2299.05 1768.67 1843.24 1498.26 1413.37"/><polyline class="cls-7" points="1555.9 297.14 1419.57 674.58 1858.85 980.25 1927.14 1311.42"/><line class="cls-7" x1="778.84" y1="1056.66" x2="863.22" y2="847.93"/><line class="cls-7" x1="1290.77" y1="773.6" x2="1625.06" y2="687.15"/><polyline class="cls-7" points="1361.73 654.84 970.29 738.06 1190.26 614.58"/></g><path class="cls-8" d="M1589.33,955.2a175.94,175.94,0,0,0-188.41-175.49c-89.16,6.16-160.34,80.13-163.33,169.45a175.75,175.75,0,0,0,80,153.56,32.17,32.17,0,0,1,13.87,33.38l-88,434.49a24.37,24.37,0,0,0,23.88,29.21h292.24a24.36,24.36,0,0,0,23.88-29.21l-88-434.47a32,32,0,0,1,13.6-33.22A175.76,175.76,0,0,0,1589.33,955.2Z"/><path class="cls-9" d="M278,2738.66a28.13,28.13,0,0,1-6.95,8,15.55,15.55,0,0,1-9.39,2.65,23,23,0,0,1-10.93-3.2q-5.86-3.21-13.26-7.18a110.79,110.79,0,0,0-16.89-7.18,67.81,67.81,0,0,0-21.65-3.2q-21,0-31.25,8.94t-10.27,24.19a22.28,22.28,0,0,0,6.18,16.12,53.34,53.34,0,0,0,16.24,11.05,173.94,173.94,0,0,0,23,8.5q12.91,3.87,26.39,8.61a237.64,237.64,0,0,1,26.4,11.16,88.38,88.38,0,0,1,23,16.34,76.26,76.26,0,0,1,16.23,24.19q6.18,14.24,6.19,34.34a111.8,111.8,0,0,1-7.74,41.75,97.5,97.5,0,0,1-22.42,33.9q-14.69,14.47-36.22,22.75t-48.92,8.28a156.93,156.93,0,0,1-30.59-3.09,182.06,182.06,0,0,1-30.15-8.72,174.69,174.69,0,0,1-27.39-13.37,116.24,116.24,0,0,1-22.31-17.22l22.09-34.9a22.31,22.31,0,0,1,7-6.3,18.18,18.18,0,0,1,9.39-2.54,25.25,25.25,0,0,1,13.36,4.2q6.74,4.2,15.24,9.28a122.82,122.82,0,0,0,19.55,9.27q11,4.2,26.06,4.2,20.31,0,31.58-8.94t11.27-28.39q0-11.26-6.19-18.33a47.87,47.87,0,0,0-16.23-11.71,150.27,150.27,0,0,0-22.86-8.17q-12.81-3.53-26.28-7.84a191.33,191.33,0,0,1-26.29-10.6A83,83,0,0,1,110,2828.88a77.32,77.32,0,0,1-16.23-25.62q-6.19-15.35-6.19-37.88A89.9,89.9,0,0,1,94.9,2730a91.29,91.29,0,0,1,21.43-30.7q14.13-13.47,34.67-21.53t47.05-8.06a176,176,0,0,1,28.82,2.32,152,152,0,0,1,26.62,6.84A147,147,0,0,1,277,2689.73,108.57,108.57,0,0,1,296.56,2704Zm348.31,256.43H568.45q-9.72,0-15.69-4.53a28.75,28.75,0,0,1-9-11.6l-19-56.1H402.35l-19,56.1a26.76,26.76,0,0,1-8.72,11.16q-6.3,5-15.57,5H300.75l124.57-321.81h76.42Zm-118.61-123-29.81-88.12q-3.31-8.4-7.07-19.77t-7.51-24.63q-3.31,13.47-7.07,25t-7.07,19.88l-29.59,87.68Zm219.11-141.35v81.5h110v57.65h-110v125.23h-75.1V2673.28H858.89v57.43Zm250.25,0v75.09h101.16V2861H977.06v76.64h132.08v57.43H902V2673.28h207.18v57.43Zm561-57.43v321.81H1463V2859H1332.21v136.06h-75.09V2673.28h75.09v134.51H1463V2673.28Zm351,321.81h-57.87q-9.73,0-15.69-4.53a28.75,28.75,0,0,1-9-11.6l-19-56.1H1665.06l-19,56.1a26.79,26.79,0,0,1-8.73,11.16q-6.28,5-15.57,5h-58.31L1688,2673.28h76.42Zm-118.61-123-29.82-88.12q-3.31-8.4-7.07-19.77t-7.51-24.63q-3.32,13.47-7.07,25t-7.06,19.88l-29.6,87.68Zm405.74-198.78-129,321.81h-67.59l-129-321.81h60.07q9.72,0,15.69,4.53a28.79,28.79,0,0,1,9.05,11.59l62.29,172.28q4.41,11.27,8.61,24.63t8,27.94q3.09-14.58,7-27.94t8.28-24.63l61.85-172.28a26.79,26.79,0,0,1,8.72-11.15q6.3-5,15.57-5Zm100.5,57.43v75.09h101.16V2861H2276.66v76.64h132.08v57.43H2201.56V2673.28h207.18v57.43Zm459-57.43v321.81h-38.87a33.8,33.8,0,0,1-14.47-2.76q-5.86-2.76-11.6-9.61L2519,2790.78q.89,8.63,1.22,16.68t.33,15.13v172.5h-65.82V2673.28H2494a64.36,64.36,0,0,1,8.18.44,21,21,0,0,1,6,1.66,19.9,19.9,0,0,1,5.08,3.42,57.86,57.86,0,0,1,5.52,6L2671.79,2878q-1.1-9.29-1.54-18t-.44-16.45V2673.28Zm-2572,417.36v104.79H144v-45.8H94.81v45.8H75.25V3090.64H94.81v45.08H144v-45.08ZM286.85,3143a58.51,58.51,0,0,1-3.8,21.34,50.14,50.14,0,0,1-10.76,17,49,49,0,0,1-16.74,11.2,60.61,60.61,0,0,1-43.41,0,49.33,49.33,0,0,1-16.78-11.2,50.31,50.31,0,0,1-10.83-17,61.24,61.24,0,0,1,0-42.69,50.31,50.31,0,0,1,10.83-17,49.18,49.18,0,0,1,16.78-11.2,56.47,56.47,0,0,1,21.67-4,58.93,58.93,0,0,1,15,1.85,53,53,0,0,1,12.9,5.21,47.76,47.76,0,0,1,10.54,8.2,49.83,49.83,0,0,1,7.94,10.76,52.63,52.63,0,0,1,5,12.9A61,61,0,0,1,286.85,3143Zm-19.92,0a48.32,48.32,0,0,0-2.32-15.48,33.3,33.3,0,0,0-6.6-11.63,28.23,28.23,0,0,0-10.4-7.32,38.79,38.79,0,0,0-27.61,0,28.51,28.51,0,0,0-10.43,7.32,32.74,32.74,0,0,0-6.63,11.63,52.77,52.77,0,0,0,0,31,32.3,32.3,0,0,0,6.63,11.59,28.67,28.67,0,0,0,10.43,7.29,38.93,38.93,0,0,0,27.61,0,28.39,28.39,0,0,0,10.4-7.29,32.84,32.84,0,0,0,6.6-11.59A48.3,48.3,0,0,0,266.93,3143Zm150.73-52.4v104.79H400.49v-67.69c0-2.7.14-5.63.43-8.76l-31.67,59.49a7.32,7.32,0,0,1-6.88,4.28h-2.76a7.31,7.31,0,0,1-6.88-4.28l-32-59.71q.21,2.38.36,4.71c.09,1.55.14,3,.14,4.27v67.69H304V3090.64h14.71c.87,0,1.62,0,2.25.07a6,6,0,0,1,1.7.37,3.58,3.58,0,0,1,1.38.94,7.62,7.62,0,0,1,1.19,1.74L356.64,3152c.82,1.54,1.58,3.14,2.28,4.78s1.39,3.33,2.07,5.07c.67-1.78,1.38-3.51,2.1-5.18s1.5-3.27,2.32-4.82l30.94-58a7.08,7.08,0,0,1,1.24-1.74,3.84,3.84,0,0,1,1.41-.94,5.89,5.89,0,0,1,1.7-.37c.63-.05,1.38-.07,2.25-.07Zm42.9,15.51v29.06h36.67v15H460.56v29.64h46.53v15.58H441V3090.64h66.1v15.51Zm118.56,0v31H618.4v15.58H579.12v42.69H559.55V3090.64h66.09v15.51ZM740.58,3143a58.72,58.72,0,0,1-3.8,21.34,50.16,50.16,0,0,1-10.77,17,48.77,48.77,0,0,1-16.74,11.2,60.61,60.61,0,0,1-43.41,0,49.28,49.28,0,0,1-16.77-11.2,50.15,50.15,0,0,1-10.83-17,61.1,61.1,0,0,1,0-42.69,50.15,50.15,0,0,1,10.83-17,49.14,49.14,0,0,1,16.77-11.2,56.55,56.55,0,0,1,21.67-4,58.82,58.82,0,0,1,15,1.85,52.73,52.73,0,0,1,12.9,5.21,47.59,47.59,0,0,1,10.55,8.2,49.79,49.79,0,0,1,7.93,10.76,52.65,52.65,0,0,1,5,12.9A61.55,61.55,0,0,1,740.58,3143Zm-19.93,0a48,48,0,0,0-2.32-15.48,33.12,33.12,0,0,0-6.59-11.63,28.23,28.23,0,0,0-10.4-7.32,38.79,38.79,0,0,0-27.61,0,28.63,28.63,0,0,0-10.44,7.32,33,33,0,0,0-6.63,11.63,52.77,52.77,0,0,0,0,31,32.6,32.6,0,0,0,6.63,11.59,28.79,28.79,0,0,0,10.44,7.29,38.93,38.93,0,0,0,27.61,0,28.39,28.39,0,0,0,10.4-7.29,32.68,32.68,0,0,0,6.59-11.59A48,48,0,0,0,720.65,3143Zm118.92,52.39H822c-3.33,0-5.75-1.3-7.24-3.91l-22-33.56a7.85,7.85,0,0,0-2.72-2.68,9.56,9.56,0,0,0-4.39-.79h-8.33v40.94h-19.5V3090.64h32a66.56,66.56,0,0,1,18.3,2.21,34.89,34.89,0,0,1,12.54,6.2,24.21,24.21,0,0,1,7.21,9.53,31.22,31.22,0,0,1,2.32,12.21,31.63,31.63,0,0,1-1.56,10,29.11,29.11,0,0,1-4.49,8.55,30.22,30.22,0,0,1-7.25,6.74,36.66,36.66,0,0,1-9.82,4.57,18.23,18.23,0,0,1,6.38,6.08Zm-50.14-54.93a30.1,30.1,0,0,0,9.6-1.38,18.77,18.77,0,0,0,6.74-3.8,15.35,15.35,0,0,0,4-5.76,20,20,0,0,0,1.3-7.32q0-8-5.25-12.25t-16.06-4.28H777.25v34.79Zm168.7,30.22A3.92,3.92,0,0,1,961,3172l7.68,8.33A42.12,42.12,0,0,1,953,3192.39q-9.32,4.2-22.36,4.2a52.78,52.78,0,0,1-21-4,46.22,46.22,0,0,1-15.91-11.08,48.63,48.63,0,0,1-10.1-17,63.5,63.5,0,0,1-3.52-21.52,60,60,0,0,1,3.77-21.64,49.73,49.73,0,0,1,10.62-16.92,48,48,0,0,1,16.34-11.05,54.24,54.24,0,0,1,21-3.95,51.65,51.65,0,0,1,20.33,3.77,48.44,48.44,0,0,1,15.11,9.85l-6.52,9.06a5.81,5.81,0,0,1-1.49,1.52,4.17,4.17,0,0,1-2.5.66,4.78,4.78,0,0,1-2.24-.62c-.78-.41-1.62-.92-2.54-1.52s-2-1.27-3.19-2a26.54,26.54,0,0,0-4.2-2,34.66,34.66,0,0,0-5.55-1.52,38.24,38.24,0,0,0-7.28-.62,32.24,32.24,0,0,0-12.86,2.51,27.89,27.89,0,0,0-10,7.24,33.38,33.38,0,0,0-6.52,11.6A48.46,48.46,0,0,0,900,3143a45.81,45.81,0,0,0,2.5,15.72,34.35,34.35,0,0,0,6.78,11.59,28.66,28.66,0,0,0,10.07,7.21,31.07,31.07,0,0,0,12.46,2.51,54.18,54.18,0,0,0,7.21-.44,30.52,30.52,0,0,0,6-1.38,26,26,0,0,0,5.14-2.42,31.79,31.79,0,0,0,4.82-3.66,6.47,6.47,0,0,1,1.52-1.05A3.64,3.64,0,0,1,958.13,3170.72Zm105.73,24.71h-17.61c-3.33,0-5.75-1.3-7.24-3.91L1017,3158a7.74,7.74,0,0,0-2.71-2.68,9.58,9.58,0,0,0-4.39-.79h-8.33v40.94H982V3090.64h32a66.62,66.62,0,0,1,18.3,2.21,34.89,34.89,0,0,1,12.54,6.2,24.21,24.21,0,0,1,7.21,9.53,33.08,33.08,0,0,1,.76,22.21,29.11,29.11,0,0,1-4.49,8.55,30.41,30.41,0,0,1-7.25,6.74,36.8,36.8,0,0,1-9.82,4.57,18.23,18.23,0,0,1,6.38,6.08Zm-50.15-54.93a30.21,30.21,0,0,0,9.61-1.38,18.72,18.72,0,0,0,6.73-3.8,15.24,15.24,0,0,0,4-5.76,20,20,0,0,0,1.31-7.32q0-8-5.26-12.25t-16-4.28h-12.46v34.79Zm101.68,14.35v40.58H1096v-40.58l-38.19-64.21H1075a6.11,6.11,0,0,1,4,1.23,10.39,10.39,0,0,1,2.5,3.12l19.13,35q1.67,3.12,2.94,5.87c.84,1.84,1.6,3.67,2.28,5.51.63-1.84,1.35-3.67,2.18-5.51s1.76-3.79,2.82-5.87l19.06-35a9.63,9.63,0,0,1,2.39-3,6,6,0,0,1,4.06-1.38h17.25Zm83-64.21a59.87,59.87,0,0,1,18.19,2.46,35.05,35.05,0,0,1,12.68,6.89,27.25,27.25,0,0,1,7.43,10.58,36.39,36.39,0,0,1,2.43,13.48,37.27,37.27,0,0,1-2.54,13.95,28.86,28.86,0,0,1-7.6,10.9,35.42,35.42,0,0,1-12.72,7.11,56.91,56.91,0,0,1-17.87,2.53H1183.8v36.89h-19.5V3090.64Zm0,52.68a29.2,29.2,0,0,0,9.35-1.34,17.56,17.56,0,0,0,6.63-3.84,15.38,15.38,0,0,0,4-6.09,23.23,23.23,0,0,0,1.31-8,21.13,21.13,0,0,0-1.31-7.61,15,15,0,0,0-3.91-5.8,17.54,17.54,0,0,0-6.6-3.66,31.3,31.3,0,0,0-9.42-1.27H1183.8v37.61Zm128.85-36.66h-31.6v88.77h-19.49v-88.77h-31.6v-16h82.69ZM1437.44,3143a58.51,58.51,0,0,1-3.81,21.34,50.14,50.14,0,0,1-10.76,17,49,49,0,0,1-16.74,11.2,60.61,60.61,0,0,1-43.41,0,49.42,49.42,0,0,1-16.78-11.2,50.31,50.31,0,0,1-10.83-17,61.24,61.24,0,0,1,0-42.69,50.31,50.31,0,0,1,10.83-17,49.28,49.28,0,0,1,16.78-11.2,56.51,56.51,0,0,1,21.67-4,58.93,58.93,0,0,1,15,1.85,52.73,52.73,0,0,1,12.9,5.21,47.53,47.53,0,0,1,10.54,8.2,49.83,49.83,0,0,1,7.94,10.76,52.63,52.63,0,0,1,5,12.9A61,61,0,0,1,1437.44,3143Zm-19.93,0a48.32,48.32,0,0,0-2.32-15.48,33.3,33.3,0,0,0-6.6-11.63,28.15,28.15,0,0,0-10.4-7.32,38.79,38.79,0,0,0-27.61,0,28.51,28.51,0,0,0-10.43,7.32,32.74,32.74,0,0,0-6.63,11.63,52.77,52.77,0,0,0,0,31,32.3,32.3,0,0,0,6.63,11.59,28.67,28.67,0,0,0,10.43,7.29,38.93,38.93,0,0,0,27.61,0,28.31,28.31,0,0,0,10.4-7.29,32.84,32.84,0,0,0,6.6-11.59A48.3,48.3,0,0,0,1417.51,3143Zm91.89-36.89v31h39.27v15.58H1509.4v42.69h-19.57V3090.64h66.09v15.51Zm82,89.28h-19.57V3090.64h19.57Zm111.75-104.79v104.79h-10a8.91,8.91,0,0,1-3.88-.76,9.14,9.14,0,0,1-3-2.58l-54.71-69.85c.29,3.19.43,6.13.43,8.84v64.35h-17.17V3090.64h10.22a18.57,18.57,0,0,1,2.13.11,5.27,5.27,0,0,1,1.6.43,5.42,5.42,0,0,1,1.34,1,15,15,0,0,1,1.45,1.63l54.93,70.15q-.23-2.53-.36-5t-.15-4.56v-63.7Zm113.12,104.79h-15.07a6.38,6.38,0,0,1-4.13-1.27,7.86,7.86,0,0,1-2.4-3.15l-7.82-21.38h-43.41l-7.83,21.38a6.92,6.92,0,0,1-2.25,3,6.24,6.24,0,0,1-4.13,1.38h-15.21l41.23-104.79h19.86Zm-34.42-39.57L1769.12,3121c-.63-1.54-1.28-3.38-1.95-5.5s-1.36-4.43-2-6.89q-.95,3.69-2,6.92t-2,5.62l-12.68,34.71Zm133.63-65.22v104.79h-10a8.91,8.91,0,0,1-3.88-.76,9.14,9.14,0,0,1-3-2.58l-54.71-69.85c.29,3.19.43,6.13.43,8.84v64.35h-17.17V3090.64h10.22a18.57,18.57,0,0,1,2.13.11,5.27,5.27,0,0,1,1.6.43,5.42,5.42,0,0,1,1.34,1,15,15,0,0,1,1.45,1.63l54.93,70.15c-.14-1.69-.27-3.36-.36-5s-.15-3.16-.15-4.56v-63.7Zm95.29,80.08a3.9,3.9,0,0,1,2.83,1.23l7.68,8.33a42.12,42.12,0,0,1-15.69,12.11q-9.31,4.2-22.35,4.2a52.75,52.75,0,0,1-21-4,46.12,46.12,0,0,1-15.91-11.08,48.5,48.5,0,0,1-10.11-17,63.5,63.5,0,0,1-3.52-21.52,60,60,0,0,1,3.77-21.64,49.73,49.73,0,0,1,10.62-16.92,48.09,48.09,0,0,1,16.34-11.05,54.25,54.25,0,0,1,21-3.95,51.6,51.6,0,0,1,20.32,3.77,48.44,48.44,0,0,1,15.11,9.85l-6.52,9.06a5.93,5.93,0,0,1-1.48,1.52,4.19,4.19,0,0,1-2.5.66,4.78,4.78,0,0,1-2.25-.62c-.77-.41-1.62-.92-2.54-1.52s-2-1.27-3.19-2a25.72,25.72,0,0,0-4.2-2,34.52,34.52,0,0,0-5.54-1.52,38.31,38.31,0,0,0-7.28-.62,32.29,32.29,0,0,0-12.87,2.51,28,28,0,0,0-10,7.24,33.54,33.54,0,0,0-6.52,11.6,48.73,48.73,0,0,0-2.32,15.62,46.05,46.05,0,0,0,2.5,15.72,34.51,34.51,0,0,0,6.78,11.59,28.75,28.75,0,0,0,10.07,7.21,31.11,31.11,0,0,0,12.47,2.51,54.29,54.29,0,0,0,7.21-.44,30.42,30.42,0,0,0,5.94-1.38,26,26,0,0,0,5.15-2.42,32.24,32.24,0,0,0,4.81-3.66,6.52,6.52,0,0,1,1.53-1.05A3.6,3.6,0,0,1,2010.8,3170.72Zm43.48,24.71h-19.56V3090.64h19.56Zm113.2,0h-15.07a6.38,6.38,0,0,1-4.13-1.27,7.86,7.86,0,0,1-2.4-3.15l-7.82-21.38h-43.41l-7.83,21.38a6.92,6.92,0,0,1-2.25,3,6.23,6.23,0,0,1-4.12,1.38h-15.22l41.23-104.79h19.86Zm-34.42-39.57L2120.3,3121c-.63-1.54-1.28-3.38-2-5.5s-1.36-4.43-2-6.89q-.95,3.69-2,6.92t-2,5.62l-12.68,34.71Zm106.67,23.48v16.09h-61.38V3090.64h19.49v88.7Zm133.12-88.7v104.79h-10a8.91,8.91,0,0,1-3.88-.76,9,9,0,0,1-3-2.58l-54.72-69.85c.29,3.19.44,6.13.44,8.84v64.35h-17.18V3090.64h10.22a18.89,18.89,0,0,1,2.14.11,4.69,4.69,0,0,1,2.93,1.38,14,14,0,0,1,1.45,1.63l54.93,70.15q-.21-2.53-.36-5c-.1-1.64-.14-3.16-.14-4.56v-63.7Zm42.9,15.51v29.06h36.67v15h-36.67v29.64h46.53v15.58h-66.1V3090.64h66.1v15.51Zm83.34,0v29.06h36.67v15h-36.67v29.64h46.53v15.58h-66.1V3090.64h66.1v15.51ZM2655.91,3143a56.61,56.61,0,0,1-3.84,21.15,47.53,47.53,0,0,1-27.54,27.4,59,59,0,0,1-21.74,3.84h-39.93V3090.64h39.93a58.43,58.43,0,0,1,21.74,3.88,48.83,48.83,0,0,1,16.74,10.79,48.31,48.31,0,0,1,10.8,16.56A56.71,56.71,0,0,1,2655.91,3143Zm-20,0a48.92,48.92,0,0,0-2.28-15.48A32,32,0,0,0,2627,3116a28.79,28.79,0,0,0-10.43-7.29,35.82,35.82,0,0,0-13.81-2.53h-20.36v73.77h20.36a35.82,35.82,0,0,0,13.81-2.53,28.67,28.67,0,0,0,10.43-7.29,32,32,0,0,0,6.6-11.59A48.9,48.9,0,0,0,2635.91,3143Zm93-33.34a6.82,6.82,0,0,1-1.85,2.21,4.1,4.1,0,0,1-2.43.69,6.24,6.24,0,0,1-3.29-1.13c-1.19-.74-2.6-1.58-4.24-2.49a35.14,35.14,0,0,0-5.77-2.51,24.41,24.41,0,0,0-7.79-1.12,23.34,23.34,0,0,0-7.1,1,14.9,14.9,0,0,0-5.11,2.72,10.89,10.89,0,0,0-3.08,4.17,13.74,13.74,0,0,0-1,5.32,9.3,9.3,0,0,0,2.06,6.16,17.25,17.25,0,0,0,5.48,4.2,50.79,50.79,0,0,0,7.75,3.12q4.35,1.38,8.91,2.94a81.21,81.21,0,0,1,8.92,3.62,30.58,30.58,0,0,1,7.75,5.22,23.54,23.54,0,0,1,5.47,7.71,26.78,26.78,0,0,1,2.07,11.09,36.08,36.08,0,0,1-2.43,13.3,30.81,30.81,0,0,1-7.1,10.8,33.5,33.5,0,0,1-11.42,7.24,41.83,41.83,0,0,1-15.43,2.65,50,50,0,0,1-9.86-1,51.64,51.64,0,0,1-9.31-2.79,50.21,50.21,0,0,1-8.37-4.35,40.2,40.2,0,0,1-7-5.65l5.73-9.35a6.05,6.05,0,0,1,1.88-1.7,4.75,4.75,0,0,1,2.47-.69,7,7,0,0,1,3.91,1.48q2.1,1.5,5,3.3a38.94,38.94,0,0,0,6.78,3.3,26,26,0,0,0,9.31,1.48q8.33,0,12.9-3.94t4.56-11.35a10.53,10.53,0,0,0-2.06-6.73,16.66,16.66,0,0,0-5.47-4.39,42,42,0,0,0-7.76-3c-2.9-.82-5.84-1.71-8.84-2.68a73.66,73.66,0,0,1-8.84-3.48,28.4,28.4,0,0,1-7.75-5.29,24,24,0,0,1-5.48-8.15,31.2,31.2,0,0,1-2.06-12.07,28.94,28.94,0,0,1,8.91-20.79,32.56,32.56,0,0,1,10.73-6.74,39.4,39.4,0,0,1,14.64-2.54,49,49,0,0,1,17.1,2.9,38.5,38.5,0,0,1,13.33,8.12Z"/></svg>