<?xml version="1.0" encoding="utf-8"?>
<!-- Generator: Adobe Illustrator 26.3.1, SVG Export Plug-In . SVG Version: 6.00 Build 0)  -->
<svg version="1.1" id="Laag_1" xmlns="http://www.w3.org/2000/svg" xmlns:xlink="http://www.w3.org/1999/xlink" x="0px" y="0px"
	 viewBox="0 0 799.6 1080" style="enable-background:new 0 0 799.6 1080;" xml:space="preserve">
<style type="text/css">
	.st0{clip-path:url(#SVGID_00000003078114950871261590000016303299102466665394_);}
	.st1{fill:url(#SVGID_00000048472273545423719220000005014901716955198598_);}
	.st2{fill:url(#SVGID_00000121274229084287264960000008190920949372276874_);}
	.st3{clip-path:url(#SVGID_00000065786229644808084870000006911228171565363376_);}
	.st4{fill:url(#SVGID_00000008147014397380007820000017749800020077759132_);}
	.st5{fill:url(#SVGID_00000037663579047238868290000016574899120036794519_);}
	.st6{clip-path:url(#SVGID_00000102506244097974798140000015850117688606450063_);}
	.st7{fill:url(#SVGID_00000142161459761246985810000005520996674599001491_);}
	.st8{fill:url(#SVGID_00000070803132072021251330000001399345812819294122_);}
	.st9{clip-path:url(#SVGID_00000045609408113692257210000010278582035128308669_);}
	.st10{fill:url(#SVGID_00000095312357322308717680000015857196397836835492_);}
	.st11{fill:url(#SVGID_00000089548041108960303000000002161936568010679691_);}
	.st12{clip-path:url(#SVGID_00000003808278056313679870000004396155705833953459_);}
	.st13{fill:url(#SVGID_00000140010489276899233170000016626816020166913716_);}
	.st14{fill:url(#SVGID_00000061465713882218601470000006600861951897809551_);}
	.st15{clip-path:url(#SVGID_00000022534917620436312150000016601482216914555313_);}
	.st16{fill:url(#SVGID_00000029767419880302410080000014638369107591918994_);}
</style>
<g>
	<g>
		<g>
			<g>
				<defs>
					<path id="SVGID_1_" d="M396.6,1016c-21.1-10.9-42.9-22.2-64.3-34c-44.9-25-84-51.3-119.6-80.6
						c-44.6-36.7-77.4-75.5-100.2-118.6C96.9,753,85.1,720.2,76.6,682.3c-7.6-34-12.6-69.6-15.1-109c-1.1-18.4-1.9-37.2-2.8-57.8
						l-2-45V184c89.9-31.6,179.9-63.3,269.9-95.3l46-16.2c8.3-3,16.6-5.9,24.7-8.9c1.7-0.6,3.5-0.6,5.1,0.1l71,25.2
						c89.7,31.8,179.5,63.4,269.2,95l-1.9,331.4c-0.9,21.7-1.6,40-2.8,57.9c-2.5,39.1-7.3,74.8-15.1,109
						c-8.5,38-20.2,70.8-35.9,100.4c-22.8,43.1-55.6,81.9-100.2,118.7c-35.4,29.1-74.5,55.5-119.6,80.6
						c-21.7,12.1-43.8,23.5-63.2,33.6c-1.3,0.8-2.9,1.1-4.5,1.2C398.6,1016.8,397.5,1016.5,396.6,1016 M399.8,25.1
						c-5.2,0-10.5,0.9-15.4,2.7c-8.2,3-16.4,5.9-24.6,8.8L314,52.7C219.9,86,125.8,119.2,31.6,152.4l-13,4.6v314.4l2.1,45.9
						c0.8,20,1.6,39.6,2.9,58.5c2.6,41.2,7.7,78.8,15.8,114.9c9.2,41.3,22.1,77.2,39.4,109.9c25.2,47.7,61.1,90.3,109.8,130.3
						c37.3,30.7,78.2,58.3,125.2,84.5c21.7,12.1,43.9,23.6,65.3,34.6c6.4,3.2,13.4,5,20.6,5.1c7.6,0,15.2-1.9,21.9-5.5
						c19.8-10.3,42.3-21.8,64.4-34.1c47.1-26.2,88-53.9,125.2-84.5c48.6-40,84.6-82.6,109.8-130.3c17.3-32.7,30.2-68.7,39.5-109.9
						c8.1-36.3,13.3-73.9,15.9-114.9c1.1-18.4,2-37.1,2.9-59.4l2.1-359.3l-13.1-4.6C674,119.5,580.1,86.3,486.3,53l-70.9-25.3
						C410.4,26,405.1,25.1,399.8,25.1z"/>
				</defs>
				<clipPath id="SVGID_00000139261373073640375660000015376728637100704156_">
					<use xlink:href="#SVGID_1_"  style="overflow:visible;"/>
				</clipPath>
				<g style="clip-path:url(#SVGID_00000139261373073640375660000015376728637100704156_);">
					
						<linearGradient id="SVGID_00000065039671618228632260000015793518815922853562_" gradientUnits="userSpaceOnUse" x1="-496.3" y1="540" x2="1296" y2="540" gradientTransform="matrix(1 0 0 -1 0 1080)">
						<stop  offset="0" style="stop-color:#161A2E"/>
						<stop  offset="0.9997" style="stop-color:#0A4C66"/>
					</linearGradient>
					<polygon style="fill:url(#SVGID_00000065039671618228632260000015793518815922853562_);" points="-496.3,540 399.8,-356.1 
						1296,540 399.8,1436.1 					"/>
				</g>
			</g>
		</g>
	</g>
</g>
<g>
	<g>
		
			<linearGradient id="SVGID_00000042729818961913197180000002261476790791543470_" gradientUnits="userSpaceOnUse" x1="268.6635" y1="588.2789" x2="530.9" y2="588.2789" gradientTransform="matrix(1 0 0 -1 0 1080)">
			<stop  offset="0" style="stop-color:#161A2E"/>
			<stop  offset="0.9997" style="stop-color:#0A4C66"/>
		</linearGradient>
		
			<path id="SVGID_00000107549258391167972420000011370025626076693896_" style="fill:url(#SVGID_00000042729818961913197180000002261476790791543470_);" d="
			M273,345.5c-0.1,52.3,32.1,99.4,81,118.1c0.7,0.3,1.4,0.5,2.1,0.8c5.6,2.1,11.4,3.8,17.4,5.1l0,0c17.4,3.8,35.3,3.7,52.6-0.2
			l62.4,257.6H311.2l53.3-220.4c-12.5-2.8-24.7-7.1-36.2-12.6l-59,244.3c-2.9,11.7,4.4,23.5,16,26.2c1.7,0.4,3.4,0.6,5.1,0.6h218.8
			c12,0,21.7-9.7,21.7-21.7c0-1.7-0.2-3.4-0.6-5.1l-72.2-298.5l0,0l-5.6-23.3c-10.5,7.7-22.6,13.2-35.4,15.6
			c-5.7,1.2-11.4,1.8-17.3,1.9c-49.1,0.2-89.1-39.6-89.3-88.7c-0.2-49.1,39.6-89.1,88.7-89.3s89.1,39.6,89.3,88.7
			c0,11.2-2,22.2-6.1,32.6l12.5,51.7c46.2-52.5,41.1-132.6-11.4-178.9S351,209,304.7,261.6C284.2,284.8,273,314.7,273,345.5"/>
	</g>
	<g>
		<g>
			<g>
				<defs>
					<path id="SVGID_00000042717499782264795840000005424661415518755483_" d="M273,345.5c-0.1,52.3,32.1,99.4,81,118.1
						c0.7,0.3,1.4,0.5,2.1,0.8c5.6,2.1,11.4,3.8,17.4,5.1l0,0c17.4,3.8,35.3,3.7,52.6-0.2l62.4,257.6H311.2l53.3-220.4
						c-12.5-2.8-24.7-7.1-36.2-12.6l-59,244.3c-2.9,11.7,4.4,23.5,16,26.2c1.7,0.4,3.4,0.6,5.1,0.6h218.8c12,0,21.7-9.7,21.7-21.7
						c0-1.7-0.2-3.4-0.6-5.1l-72.2-298.5l0,0l-5.6-23.3c-10.5,7.7-22.6,13.2-35.4,15.6c-5.7,1.2-11.4,1.8-17.3,1.9
						c-49.1,0.2-89.1-39.6-89.3-88.7c-0.2-49.1,39.6-89.1,88.7-89.3s89.1,39.6,89.3,88.7c0,11.2-2,22.2-6.1,32.6l12.5,51.7
						c46.2-52.5,41.1-132.6-11.4-178.9S351,209,304.7,261.6C284.2,284.8,273,314.7,273,345.5"/>
				</defs>
				<clipPath id="SVGID_00000137817927817727969840000017512194007789008258_">
					<use xlink:href="#SVGID_00000042717499782264795840000005424661415518755483_"  style="overflow:visible;"/>
				</clipPath>
				<g style="clip-path:url(#SVGID_00000137817927817727969840000017512194007789008258_);">
					
						<linearGradient id="SVGID_00000142152804771703908440000014609486517861887893_" gradientUnits="userSpaceOnUse" x1="-2234.4233" y1="1078.4169" x2="-2233.4697" y2="1078.4169" gradientTransform="matrix(718.3851 -718.3851 -718.3851 -718.3851 2379967.75 -829638.875)">
						<stop  offset="1.798500e-04" style="stop-color:#FF105C"/>
						<stop  offset="1" style="stop-color:#EF6E5E"/>
					</linearGradient>
					<polygon style="fill:url(#SVGID_00000142152804771703908440000014609486517861887893_);" points="-7.4,491.8 399.8,84.8 
						807,491.8 399.8,899 					"/>
				</g>
			</g>
		</g>
	</g>
</g>
<g>
	<g>
		
			<linearGradient id="SVGID_00000024716719396080828360000017404466946397135032_" gradientUnits="userSpaceOnUse" x1="418.9" y1="799.45" x2="688.1" y2="799.45" gradientTransform="matrix(1 0 0 -1 0 1080)">
			<stop  offset="0" style="stop-color:#161A2E"/>
			<stop  offset="0.9997" style="stop-color:#0A4C66"/>
		</linearGradient>
		
			<path id="SVGID_00000127033154770969976430000009811453977324221631_" style="fill:url(#SVGID_00000024716719396080828360000017404466946397135032_);" d="
			M418.9,167.6l23.8,8.5l0.2,0.1h0.1c73.6,26,140.7,49.9,206.8,73.1l-1,184.7h38.1l1.2-211.7c-73.7-25.9-147-51.9-232.5-82.2l0,0
			l0,0l-36.6-13L418.9,167.6z"/>
	</g>
	<g>
		<g>
			<g>
				<defs>
					<path id="SVGID_00000041974289666333732000000012115452119955347846_" d="M418.9,167.6l23.8,8.5l0.2,0.1h0.1
						c73.6,26,140.7,49.9,206.8,73.1l-1,184.7h38.1l1.2-211.7c-73.7-25.9-147-51.9-232.5-82.2l0,0l0,0l-36.6-13L418.9,167.6z"/>
				</defs>
				<clipPath id="SVGID_00000006667433190904719400000006787461685394102412_">
					<use xlink:href="#SVGID_00000041974289666333732000000012115452119955347846_"  style="overflow:visible;"/>
				</clipPath>
				<g style="clip-path:url(#SVGID_00000006667433190904719400000006787461685394102412_);">
					
						<linearGradient id="SVGID_00000150808014456071519520000003427481995151832747_" gradientUnits="userSpaceOnUse" x1="-2234.4233" y1="1078.4568" x2="-2233.4697" y2="1078.4568" gradientTransform="matrix(718.3851 -718.3851 -718.3851 -718.3851 2379967.75 -829639)">
						<stop  offset="0" style="stop-color:#161A2E"/>
						<stop  offset="0.9997" style="stop-color:#0A4C66"/>
					</linearGradient>
					<polygon style="fill:url(#SVGID_00000150808014456071519520000003427481995151832747_);" points="265.6,280.6 553.5,-7.5 
						841.4,280.6 553.5,568.9 					"/>
				</g>
			</g>
		</g>
	</g>
</g>
<g>
	<g>
		
			<linearGradient id="SVGID_00000150807155598601226830000005196468302805507757_" gradientUnits="userSpaceOnUse" x1="419.1" y1="389.85" x2="687.2" y2="389.85" gradientTransform="matrix(1 0 0 -1 0 1080)">
			<stop  offset="0" style="stop-color:#161A2E"/>
			<stop  offset="0.9997" style="stop-color:#0A4C66"/>
		</linearGradient>
		
			<path id="SVGID_00000144332714645355560070000000304039625621879461_" style="fill:url(#SVGID_00000150807155598601226830000005196468302805507757_);" d="
			M648.8,434.1l-0.2,44.4c-0.8,21.9-1.5,40.3-2.6,58.5c-2.1,36.9-6.4,70.4-13,102.1c-6.7,32.2-15.6,59.6-27.5,83.6
			c-17,34.6-42.2,66.7-77.2,97.7c-31,27.6-65.6,52.7-105.7,77l-3.5,2.1v46.9c7.3-4.3,14.8-8.6,22.1-13c42.1-25.4,78.7-52,111.5-81.1
			c39-34.7,67.4-70.8,86.8-110.3c13.4-27.4,23.6-58.1,31-93.9c7.1-33.9,11.5-69.4,13.8-108.6c1-18.6,1.8-37.6,2.7-60.2l0.2-45.4
			h-38.3L648.8,434.1L648.8,434.1z"/>
	</g>
	<g>
		<g>
			<g>
				<defs>
					<path id="SVGID_00000142854322721988326610000009007242318632692619_" d="M648.8,434.1l-0.2,44.4c-0.8,21.9-1.5,40.3-2.6,58.5
						c-2.1,36.9-6.4,70.4-13,102.1c-6.7,32.2-15.6,59.6-27.5,83.6c-17,34.6-42.2,66.7-77.2,97.7c-31,27.6-65.6,52.7-105.7,77
						l-3.5,2.1v46.9c7.3-4.3,14.8-8.6,22.1-13c42.1-25.4,78.7-52,111.5-81.1c39-34.7,67.4-70.8,86.8-110.3
						c13.4-27.4,23.6-58.1,31-93.9c7.1-33.9,11.5-69.4,13.8-108.6c1-18.6,1.8-37.6,2.7-60.2l0.2-45.4h-38.3L648.8,434.1L648.8,434.1
						z"/>
				</defs>
				<clipPath id="SVGID_00000166640464590082843100000012546557735436050841_">
					<use xlink:href="#SVGID_00000142854322721988326610000009007242318632692619_"  style="overflow:visible;"/>
				</clipPath>
				<g style="clip-path:url(#SVGID_00000166640464590082843100000012546557735436050841_);">
					
						<linearGradient id="SVGID_00000147188663488551592930000009098007463731622305_" gradientUnits="userSpaceOnUse" x1="-2234.4431" y1="1078.1722" x2="-2233.4126" y2="1078.1722" gradientTransform="matrix(718.3851 -718.3851 -718.3851 -718.3851 2379967.75 -829638.875)">
						<stop  offset="0" style="stop-color:#161A2E"/>
						<stop  offset="0.9997" style="stop-color:#0A4C66"/>
					</linearGradient>
					<polygon style="fill:url(#SVGID_00000147188663488551592930000009098007463731622305_);" points="181.7,690.3 552.9,289.2 
						924.1,690.3 552.9,1091.3 					"/>
				</g>
			</g>
		</g>
	</g>
</g>
<g>
	<g>
		
			<linearGradient id="SVGID_00000165954487974212070470000012891554791556413117_" gradientUnits="userSpaceOnUse" x1="-1512.0717" y1="799.4" x2="-1242.8716" y2="799.4" gradientTransform="matrix(-1 0 0 -1 -1128.9716 1080)">
			<stop  offset="0" style="stop-color:#161A2E"/>
			<stop  offset="0.9997" style="stop-color:#0A4C66"/>
		</linearGradient>
		
			<path id="SVGID_00000047054167567920673560000009936047183176835770_" style="fill:url(#SVGID_00000165954487974212070470000012891554791556413117_);" d="
			M383.1,127.1l-36.7,13.1l0,0l0,0c-85.4,30.3-158.8,56.3-232.5,82.2l1.2,211.7h38.1l-1-184.7c66.1-23.3,133.2-47.1,206.8-73.1h0.1
			l0.2-0.1l23.8-8.5V127.1z"/>
	</g>
	<g>
		<g>
			<g>
				<defs>
					<path id="SVGID_00000090983355679708270250000004880775083965686431_" d="M383.1,127.1l-36.7,13.1l0,0l0,0
						c-85.4,30.3-158.8,56.3-232.5,82.2l1.2,211.7h38.1l-1-184.7c66.1-23.3,133.2-47.1,206.8-73.1h0.1l0.2-0.1l23.8-8.5V127.1z"/>
				</defs>
				<clipPath id="SVGID_00000029006115867639962720000017616902509006976953_">
					<use xlink:href="#SVGID_00000090983355679708270250000004880775083965686431_"  style="overflow:visible;"/>
				</clipPath>
				<g style="clip-path:url(#SVGID_00000029006115867639962720000017616902509006976953_);">
					
						<linearGradient id="SVGID_00000170962755139809515450000014503650260508549806_" gradientUnits="userSpaceOnUse" x1="-2235.7673" y1="1079.8008" x2="-2234.8137" y2="1079.8008" gradientTransform="matrix(-718.3851 -718.3851 718.3851 -718.3851 -2381096.75 -829639)">
						<stop  offset="0" style="stop-color:#161A2E"/>
						<stop  offset="0.9997" style="stop-color:#0A4C66"/>
					</linearGradient>
					<polygon style="fill:url(#SVGID_00000170962755139809515450000014503650260508549806_);" points="248.6,568.9 -39.3,280.6 
						248.6,-7.5 536.4,280.6 					"/>
				</g>
			</g>
		</g>
	</g>
</g>
<g>
	<g>
		
			<linearGradient id="SVGID_00000029005368593200661590000008789198127087825325_" gradientUnits="userSpaceOnUse" x1="-1512.0717" y1="389.85" x2="-1243.9716" y2="389.85" gradientTransform="matrix(-1 0 0 -1 -1128.9716 1080)">
			<stop  offset="0" style="stop-color:#161A2E"/>
			<stop  offset="0.9997" style="stop-color:#0A4C66"/>
		</linearGradient>
		
			<path id="SVGID_00000058578391140996266250000014717595202285032073_" style="fill:url(#SVGID_00000029005368593200661590000008789198127087825325_);" d="
			M153.3,433.9H115l0.2,45.4c0.9,22.6,1.6,41.6,2.7,60.2c2.3,39.2,6.8,74.7,13.8,108.6c7.4,35.9,17.5,66.6,31,93.9
			c19.4,39.6,47.8,75.6,86.8,110.3c32.8,29.2,69.3,55.8,111.5,81.1c7.3,4.4,14.8,8.7,22.1,13v-46.9l-3.5-2.1
			c-40.1-24.2-74.8-49.4-105.7-77c-35-31.1-60.3-63.1-77.2-97.7c-11.8-24-20.8-51.4-27.5-83.6c-6.6-31.8-10.9-65.2-13-102.1
			c-1-18.1-1.8-36.5-2.6-58.5l-0.2-44.4v-0.2H153.3z"/>
	</g>
	<g>
		<g>
			<g>
				<defs>
					<path id="SVGID_00000021111262918911648900000006873077687188135059_" d="M153.3,433.9H115l0.2,45.4
						c0.9,22.6,1.6,41.6,2.7,60.2c2.3,39.2,6.8,74.7,13.8,108.6c7.4,35.9,17.5,66.6,31,93.9c19.4,39.6,47.8,75.6,86.8,110.3
						c32.8,29.2,69.3,55.8,111.5,81.1c7.3,4.4,14.8,8.7,22.1,13v-46.9l-3.5-2.1c-40.1-24.2-74.8-49.4-105.7-77
						c-35-31.1-60.3-63.1-77.2-97.7c-11.8-24-20.8-51.4-27.5-83.6c-6.6-31.8-10.9-65.2-13-102.1c-1-18.1-1.8-36.5-2.6-58.5
						l-0.2-44.4v-0.2H153.3z"/>
				</defs>
				<clipPath id="SVGID_00000049927759005373919120000001820718137937326235_">
					<use xlink:href="#SVGID_00000021111262918911648900000006873077687188135059_"  style="overflow:visible;"/>
				</clipPath>
				<g style="clip-path:url(#SVGID_00000049927759005373919120000001820718137937326235_);">
					
						<linearGradient id="SVGID_00000152229441449396377320000012323142454833207728_" gradientUnits="userSpaceOnUse" x1="-2235.7871" y1="1079.5161" x2="-2234.7566" y2="1079.5161" gradientTransform="matrix(-718.3851 -718.3851 718.3851 -718.3851 -2381096.75 -829638.875)">
						<stop  offset="0" style="stop-color:#161A2E"/>
						<stop  offset="0.9997" style="stop-color:#0A4C66"/>
					</linearGradient>
					<polygon style="fill:url(#SVGID_00000152229441449396377320000012323142454833207728_);" points="249.1,1091.3 -122,690.3 
						249.1,289.2 620.4,690.3 					"/>
				</g>
			</g>
		</g>
	</g>
</g>
</svg>
