<?xml version="1.0" encoding="utf-8"?>
<!-- Generator: Adobe Illustrator 26.3.1, SVG Export Plug-In . SVG Version: 6.00 Build 0)  -->
<svg version="1.1" id="Laag_1" xmlns="http://www.w3.org/2000/svg" xmlns:xlink="http://www.w3.org/1999/xlink" x="0px" y="0px"
	 viewBox="0 0 799.6 1080" style="enable-background:new 0 0 799.6 1080;" xml:space="preserve">
<style type="text/css">
	.st0{clip-path:url(#SVGID_00000103258119340928757050000000982862758790269599_);}
	.st1{fill:#FFFFFF;}
	.st2{clip-path:url(#SVGID_00000131345438985957453320000004492216402557190277_);}
	.st3{clip-path:url(#SVGID_00000091724950351238277860000015377318633709693596_);}
	.st4{clip-path:url(#SVGID_00000115516530438951513560000000383755552439355776_);}
	.st5{clip-path:url(#SVGID_00000021805418763057350320000011577298567697036223_);}
	.st6{clip-path:url(#SVGID_00000040558749927698476720000002985778158620113577_);}
</style>
<g>
	<g>
		<g>
			<g>
				<g>
					<defs>
						<path id="SVGID_1_" d="M396.6,1016c-21.1-10.9-42.9-22.2-64.3-34c-44.9-25-84-51.3-119.6-80.6
							c-44.6-36.7-77.4-75.5-100.2-118.6C96.9,753,85.1,720.2,76.6,682.3c-7.6-34-12.6-69.6-15.1-109c-1.1-18.4-1.9-37.2-2.8-57.8
							l-2-45V184c89.9-31.6,179.9-63.3,269.9-95.3l46-16.2c8.3-3,16.6-5.9,24.7-8.9c1.7-0.6,3.5-0.6,5.1,0.1l71,25.2
							c89.7,31.8,179.5,63.4,269.2,95l-1.9,331.4c-0.9,21.7-1.6,40-2.8,57.9c-2.5,39.1-7.3,74.8-15.1,109
							c-8.5,38-20.2,70.8-35.9,100.4c-22.8,43.1-55.6,81.9-100.2,118.7c-35.4,29.1-74.5,55.5-119.6,80.6
							c-21.7,12.1-43.8,23.5-63.2,33.6c-1.3,0.8-2.9,1.1-4.5,1.2C398.6,1016.8,397.5,1016.5,396.6,1016 M399.8,25.1
							c-5.2,0-10.5,0.9-15.4,2.7c-8.2,3-16.4,5.9-24.6,8.8L314,52.7C219.9,86,125.8,119.2,31.6,152.4l-13,4.6v314.4l2.1,45.9
							c0.8,20,1.6,39.6,2.9,58.5c2.6,41.2,7.7,78.8,15.8,114.9c9.2,41.3,22.1,77.2,39.4,109.9c25.2,47.7,61.1,90.3,109.8,130.3
							c37.3,30.7,78.2,58.3,125.2,84.5c21.7,12.1,43.9,23.6,65.3,34.6c6.4,3.2,13.4,5,20.6,5.1c7.6,0,15.2-1.9,21.9-5.5
							c19.8-10.3,42.3-21.8,64.4-34.1c47.1-26.2,88-53.9,125.2-84.5c48.6-40,84.6-82.6,109.8-130.3c17.3-32.7,30.2-68.7,39.5-109.9
							c8.1-36.3,13.3-73.9,15.9-114.9c1.1-18.4,2-37.1,2.9-59.4l2.1-359.3l-13.1-4.6C674,119.5,580.1,86.3,486.3,53l-70.9-25.3
							C410.4,26,405.1,25.1,399.8,25.1z"/>
					</defs>
					<use xlink:href="#SVGID_1_"  style="overflow:visible;fill:#FFFFFF;"/>
					<clipPath id="SVGID_00000162326749773676198190000000328439848233872319_">
						<use xlink:href="#SVGID_1_"  style="overflow:visible;"/>
					</clipPath>
					<g style="clip-path:url(#SVGID_00000162326749773676198190000000328439848233872319_);">
						<polygon class="st1" points="-496.3,540 399.8,-356.1 1296,540 399.8,1436.1 						"/>
					</g>
				</g>
			</g>
		</g>
	</g>
</g>
<g>
	<g>
		<path id="SVGID_00000107549258391167972420000011370025626076693896_" class="st1" d="M273,345.5c-0.1,52.3,32.1,99.4,81,118.1
			c0.7,0.3,1.4,0.5,2.1,0.8c5.6,2.1,11.4,3.8,17.4,5.1l0,0c17.4,3.8,35.3,3.7,52.6-0.2l62.4,257.6H311.2l53.3-220.4
			c-12.5-2.8-24.7-7.1-36.2-12.6l-59,244.3c-2.9,11.7,4.4,23.5,16,26.2c1.7,0.4,3.4,0.6,5.1,0.6h218.8c12,0,21.7-9.7,21.7-21.7
			c0-1.7-0.2-3.4-0.6-5.1l-72.2-298.5l0,0l-5.6-23.3c-10.5,7.7-22.6,13.2-35.4,15.6c-5.7,1.2-11.4,1.8-17.3,1.9
			c-49.1,0.2-89.1-39.6-89.3-88.7c-0.2-49.1,39.6-89.1,88.7-89.3c49.1-0.2,89.1,39.6,89.3,88.7c0,11.2-2,22.2-6.1,32.6l12.5,51.7
			c46.2-52.5,41.1-132.6-11.4-178.9S351,209,304.7,261.6C284.2,284.8,273,314.7,273,345.5"/>
	</g>
	<g>
		<g>
			<g>
				<g>
					<defs>
						<path id="SVGID_00000041275200755894717280000017605046876261693327_" d="M273,345.5c-0.1,52.3,32.1,99.4,81,118.1
							c0.7,0.3,1.4,0.5,2.1,0.8c5.6,2.1,11.4,3.8,17.4,5.1l0,0c17.4,3.8,35.3,3.7,52.6-0.2l62.4,257.6H311.2l53.3-220.4
							c-12.5-2.8-24.7-7.1-36.2-12.6l-59,244.3c-2.9,11.7,4.4,23.5,16,26.2c1.7,0.4,3.4,0.6,5.1,0.6h218.8c12,0,21.7-9.7,21.7-21.7
							c0-1.7-0.2-3.4-0.6-5.1l-72.2-298.5l0,0l-5.6-23.3c-10.5,7.7-22.6,13.2-35.4,15.6c-5.7,1.2-11.4,1.8-17.3,1.9
							c-49.1,0.2-89.1-39.6-89.3-88.7c-0.2-49.1,39.6-89.1,88.7-89.3c49.1-0.2,89.1,39.6,89.3,88.7c0,11.2-2,22.2-6.1,32.6
							l12.5,51.7c46.2-52.5,41.1-132.6-11.4-178.9S351,209,304.7,261.6C284.2,284.8,273,314.7,273,345.5"/>
					</defs>
					<use xlink:href="#SVGID_00000041275200755894717280000017605046876261693327_"  style="overflow:visible;fill:#FFFFFF;"/>
					<clipPath id="SVGID_00000074427405721675478050000009283929629635370919_">
						<use xlink:href="#SVGID_00000041275200755894717280000017605046876261693327_"  style="overflow:visible;"/>
					</clipPath>
					<g style="clip-path:url(#SVGID_00000074427405721675478050000009283929629635370919_);">
						<polygon class="st1" points="-7.4,491.8 399.8,84.8 807,491.8 399.8,899 						"/>
					</g>
				</g>
			</g>
		</g>
	</g>
</g>
<g>
	<g>
		<path id="SVGID_00000127033154770969976430000009811453977324221631_" class="st1" d="M418.9,167.6l23.8,8.5l0.2,0.1h0.1
			c73.6,26,140.7,49.9,206.8,73.1l-1,184.7h38.1l1.2-211.7c-73.7-25.9-147-51.9-232.5-82.2l0,0l0,0l-36.6-13L418.9,167.6z"/>
	</g>
	<g>
		<g>
			<g>
				<g>
					<defs>
						<path id="SVGID_00000105417746694611836060000004640044838136207509_" d="M418.9,167.6l23.8,8.5l0.2,0.1h0.1
							c73.6,26,140.7,49.9,206.8,73.1l-1,184.7h38.1l1.2-211.7c-73.7-25.9-147-51.9-232.5-82.2l0,0l0,0l-36.6-13L418.9,167.6z"/>
					</defs>
					<use xlink:href="#SVGID_00000105417746694611836060000004640044838136207509_"  style="overflow:visible;fill:#FFFFFF;"/>
					<clipPath id="SVGID_00000006665979684370889740000008735305300812583564_">
						<use xlink:href="#SVGID_00000105417746694611836060000004640044838136207509_"  style="overflow:visible;"/>
					</clipPath>
					<g style="clip-path:url(#SVGID_00000006665979684370889740000008735305300812583564_);">
						<polygon class="st1" points="265.6,280.6 553.5,-7.5 841.4,280.6 553.5,568.9 						"/>
					</g>
				</g>
			</g>
		</g>
	</g>
</g>
<g>
	<g>
		<path id="SVGID_00000144332714645355560070000000304039625621879461_" class="st1" d="M648.8,434.1l-0.2,44.4
			c-0.8,21.9-1.5,40.3-2.6,58.5c-2.1,36.9-6.4,70.4-13,102.1c-6.7,32.2-15.6,59.6-27.5,83.6c-17,34.6-42.2,66.7-77.2,97.7
			c-31,27.6-65.6,52.7-105.7,77l-3.5,2.1v46.9c7.3-4.3,14.8-8.6,22.1-13c42.1-25.4,78.7-52,111.5-81.1c39-34.7,67.4-70.8,86.8-110.3
			c13.4-27.4,23.6-58.1,31-93.9c7.1-33.9,11.5-69.4,13.8-108.6c1-18.6,1.8-37.6,2.7-60.2l0.2-45.4h-38.3L648.8,434.1L648.8,434.1z"
			/>
	</g>
	<g>
		<g>
			<g>
				<g>
					<defs>
						<path id="SVGID_00000168837004397727495810000018052313802823541918_" d="M648.8,434.1l-0.2,44.4c-0.8,21.9-1.5,40.3-2.6,58.5
							c-2.1,36.9-6.4,70.4-13,102.1c-6.7,32.2-15.6,59.6-27.5,83.6c-17,34.6-42.2,66.7-77.2,97.7c-31,27.6-65.6,52.7-105.7,77
							l-3.5,2.1v46.9c7.3-4.3,14.8-8.6,22.1-13c42.1-25.4,78.7-52,111.5-81.1c39-34.7,67.4-70.8,86.8-110.3
							c13.4-27.4,23.6-58.1,31-93.9c7.1-33.9,11.5-69.4,13.8-108.6c1-18.6,1.8-37.6,2.7-60.2l0.2-45.4h-38.3L648.8,434.1
							L648.8,434.1z"/>
					</defs>
					<use xlink:href="#SVGID_00000168837004397727495810000018052313802823541918_"  style="overflow:visible;fill:#FFFFFF;"/>
					<clipPath id="SVGID_00000019644066123848741010000001969115249013957563_">
						<use xlink:href="#SVGID_00000168837004397727495810000018052313802823541918_"  style="overflow:visible;"/>
					</clipPath>
					<g style="clip-path:url(#SVGID_00000019644066123848741010000001969115249013957563_);">
						<polygon class="st1" points="181.7,690.3 552.9,289.2 924.1,690.3 552.9,1091.3 						"/>
					</g>
				</g>
			</g>
		</g>
	</g>
</g>
<g>
	<g>
		<path id="SVGID_00000047054167567920673560000009936047183176835770_" class="st1" d="M383.1,127.1l-36.7,13.1l0,0l0,0
			c-85.4,30.3-158.8,56.3-232.5,82.2l1.2,211.7h38.1l-1-184.7c66.1-23.3,133.2-47.1,206.8-73.1h0.1l0.2-0.1l23.8-8.5V127.1z"/>
	</g>
	<g>
		<g>
			<g>
				<g>
					<defs>
						<path id="SVGID_00000003809401084260406140000001419264786426205593_" d="M383.1,127.1l-36.7,13.1l0,0l0,0
							c-85.4,30.3-158.8,56.3-232.5,82.2l1.2,211.7h38.1l-1-184.7c66.1-23.3,133.2-47.1,206.8-73.1h0.1l0.2-0.1l23.8-8.5V127.1z"/>
					</defs>
					<use xlink:href="#SVGID_00000003809401084260406140000001419264786426205593_"  style="overflow:visible;fill:#FFFFFF;"/>
					<clipPath id="SVGID_00000182524689719895630820000012889828148371999421_">
						<use xlink:href="#SVGID_00000003809401084260406140000001419264786426205593_"  style="overflow:visible;"/>
					</clipPath>
					<g style="clip-path:url(#SVGID_00000182524689719895630820000012889828148371999421_);">
						<polygon class="st1" points="248.6,568.9 -39.3,280.6 248.6,-7.5 536.4,280.6 						"/>
					</g>
				</g>
			</g>
		</g>
	</g>
</g>
<g>
	<g>
		<path id="SVGID_00000058578391140996266250000014717595202285032073_" class="st1" d="M153.3,433.9H115l0.2,45.4
			c0.9,22.6,1.6,41.6,2.7,60.2c2.3,39.2,6.8,74.7,13.8,108.6c7.4,35.9,17.5,66.6,31,93.9c19.4,39.6,47.8,75.6,86.8,110.3
			c32.8,29.2,69.3,55.8,111.5,81.1c7.3,4.4,14.8,8.7,22.1,13v-46.9l-3.5-2.1c-40.1-24.2-74.8-49.4-105.7-77
			c-35-31.1-60.3-63.1-77.2-97.7c-11.8-24-20.8-51.4-27.5-83.6c-6.6-31.8-10.9-65.2-13-102.1c-1-18.1-1.8-36.5-2.6-58.5l-0.2-44.4
			v-0.2H153.3z"/>
	</g>
	<g>
		<g>
			<g>
				<g>
					<defs>
						<path id="SVGID_00000073700155587827948300000002630506622342221446_" d="M153.3,433.9H115l0.2,45.4
							c0.9,22.6,1.6,41.6,2.7,60.2c2.3,39.2,6.8,74.7,13.8,108.6c7.4,35.9,17.5,66.6,31,93.9c19.4,39.6,47.8,75.6,86.8,110.3
							c32.8,29.2,69.3,55.8,111.5,81.1c7.3,4.4,14.8,8.7,22.1,13v-46.9l-3.5-2.1c-40.1-24.2-74.8-49.4-105.7-77
							c-35-31.1-60.3-63.1-77.2-97.7c-11.8-24-20.8-51.4-27.5-83.6c-6.6-31.8-10.9-65.2-13-102.1c-1-18.1-1.8-36.5-2.6-58.5
							l-0.2-44.4v-0.2H153.3z"/>
					</defs>
					<use xlink:href="#SVGID_00000073700155587827948300000002630506622342221446_"  style="overflow:visible;fill:#FFFFFF;"/>
					<clipPath id="SVGID_00000002385112630835217980000007725152336637973657_">
						<use xlink:href="#SVGID_00000073700155587827948300000002630506622342221446_"  style="overflow:visible;"/>
					</clipPath>
					<g style="clip-path:url(#SVGID_00000002385112630835217980000007725152336637973657_);">
						<polygon class="st1" points="249.1,1091.3 -122,690.3 249.1,289.2 620.4,690.3 						"/>
					</g>
				</g>
			</g>
		</g>
	</g>
</g>
</svg>
